<svg width="134" height="40" viewBox="0 0 134 40" fill="none" xmlns="http://www.w3.org/2000/svg">
<path d="M31.3805 21.149C31.3283 16.1268 36.0768 13.7138 36.2907 13.5952C33.6191 10.1786 29.4655 9.71336 27.9836 9.65863C24.4509 9.34388 21.0853 11.4787 19.2903 11.4787C17.4953 11.4787 14.7297 9.70424 11.7972 9.75442C7.94101 9.80459 4.38752 11.7113 2.39944 14.731C-1.60281 20.7978 1.3767 29.7976 5.27981 34.7285C7.18961 37.137 9.45947 39.8511 12.4494 39.7507C15.3298 39.6504 16.4151 38.1223 19.8904 38.1223C23.3656 38.1223 24.3466 39.7507 27.3835 39.7005C30.4778 39.6458 32.4398 37.2373 34.3339 34.8197C36.5203 32.0236 37.423 29.314 37.4752 29.1726C37.4074 29.1498 31.4431 27.1519 31.3805 21.149Z" fill="white"/>
<path d="M25.6674 6.39704C27.2529 4.71844 28.3225 2.38204 28.0305 0.0566406C25.7454 0.139141 22.9796 1.38764 21.3412 3.06734C19.8753 4.55014 18.5729 6.92614 18.9353 9.20754C21.4771 9.38134 24.0819 8.07124 25.6674 6.39814" fill="white"/>
<path d="M51.4121 26.088L48.7696 33.0532H45.4023L54.0068 10.9102H57.9517L66.5927 33.0532H63.0945L60.3866 26.088H51.4121ZM59.7197 23.8528L57.2407 17.4805C56.677 16.034 56.302 14.7195 55.9258 13.4391H55.8528L54.5756 17.4596L52.0967 23.8638L59.7197 23.8528Z" fill="white"/>
<path d="M69.1539 22.344L69.0029 17.152H71.9726L72.1236 19.88H72.1966C73.548 17.9418 75.6922 16.7923 78.6619 16.7923C83.061 16.7923 86.3629 20.045 86.3629 24.8751C86.3629 30.5907 82.3815 33.4144 78.0956 33.4144C75.6897 33.4144 73.587 32.4926 72.4961 30.9196H72.4231V39.57H69.1514L69.1539 22.344ZM72.4206 26.5812C72.4206 27.0212 72.4935 27.4018 72.5716 27.7626C73.1718 29.7646 75.1637 31.1473 77.5344 31.1473C81.0301 31.1473 83.0711 28.6525 83.0711 25.0027C83.0711 21.8127 81.1559 19.0913 77.6603 19.0913C75.3953 19.0913 73.3027 20.5059 72.6609 22.6718C72.5224 23.0543 72.447 23.4521 72.4369 23.8532V26.5812H72.4206ZM89.7818 22.344L89.6308 17.152H92.6005L92.7515 19.88H92.8244C94.1759 17.9418 96.3201 16.7923 99.2898 16.7923C103.689 16.7923 106.991 20.045 106.991 24.8751C106.991 30.5907 103.009 33.4144 98.7235 33.4144C96.3176 33.4144 94.2149 32.4926 93.1239 30.9196H93.0509V39.57H89.7793L89.7818 22.344ZM93.0535 26.5812C93.0535 27.0212 93.1264 27.4018 93.2045 27.7626C93.8047 29.7646 95.7966 31.1473 98.1673 31.1473C101.663 31.1473 103.704 28.6525 103.704 25.0027C103.704 21.8127 101.789 19.0913 98.2932 19.0913C96.0282 19.0913 93.9356 20.5059 93.2938 22.6718C93.1553 23.0543 93.0799 23.4521 93.0698 23.8532V26.5812H93.0535ZM110.413 9.73145H113.723V33.0547H110.413V9.73145ZM120.369 25.6286C120.442 29.538 123.301 31.1484 126.604 31.1484C128.974 31.1484 130.398 30.7876 131.64 30.3278L132.204 32.3991C131.04 32.8611 129.058 33.3847 126.156 33.3847C120.557 33.3847 117.212 30.1639 117.212 25.3701C117.212 20.5763 120.442 16.7945 125.744 16.7945C131.683 16.7945 133.256 21.3595 133.256 24.2745C133.256 24.8685 133.183 25.3239 133.13 25.6198L120.369 25.6286ZM130.065 23.5573C130.103 21.7203 129.199 18.8603 125.478 18.8603C122.134 18.8603 120.668 21.5553 120.407 23.5573H130.065Z" fill="white"/>
</svg>
