<svg width="75" height="75" viewBox="0 0 75 75" fill="none" xmlns="http://www.w3.org/2000/svg">
<g clip-path="url(#clip0_15_71)">
<path d="M74.9067 37.4989C74.9067 42.4113 73.9392 47.2757 72.0593 51.8143C70.1795 56.3528 67.4241 60.4767 63.9506 63.9503C60.4771 67.424 56.3534 70.1794 51.8151 72.0594C47.2767 73.9393 42.4125 74.9069 37.5002 74.9069C32.5879 74.9069 27.7238 73.9393 23.1854 72.0594C18.647 70.1794 14.5234 67.424 11.0499 63.9503C7.57635 60.4767 4.82099 56.3528 2.94114 51.8143C1.06129 47.2757 0.0937499 42.4113 0.09375 37.4989C0.0937499 32.5864 1.06129 27.722 2.94114 23.1834C4.82099 18.6449 7.57635 14.521 11.0499 11.0474C14.5234 7.57372 18.647 4.81827 23.1854 2.93834C27.7238 1.05841 32.5879 0.0908203 37.5002 0.0908203C42.4125 0.0908203 47.2767 1.05841 51.8151 2.93834C56.3534 4.81827 60.4771 7.57372 63.9506 11.0474C67.4241 14.521 70.1795 18.6449 72.0593 23.1834C73.9392 27.722 74.9067 32.5864 74.9067 37.4989Z" fill="white"/>
<path d="M48.9028 37.4982C48.9028 31.2006 43.7984 26.0957 37.5011 26.0957C31.2035 26.0957 26.0986 31.2006 26.0986 37.4982C26.0986 43.7955 31.2035 48.9006 37.5011 48.9006C43.7984 48.9006 48.9028 43.7955 48.9028 37.4982Z" fill="#ED1C24"/>
<path d="M37.5019 0.0908203C33.938 0.0908203 30.4954 0.599812 27.23 1.53077V21.751C30.1833 19.821 33.7096 18.6948 37.5012 18.6948C47.8855 18.6948 56.3047 27.1136 56.3047 37.4988C56.3047 47.8839 47.8855 56.3028 37.5012 56.3028C27.1161 56.3028 18.697 47.8839 18.697 37.4988C18.697 37.1647 18.7065 36.8329 18.7233 36.5029L18.697 36.5237V5.16634C7.57448 11.6492 0.09375 23.6967 0.09375 37.4988C0.09375 58.1584 16.8423 74.9069 37.5019 74.9069C58.1613 74.9069 74.9067 58.1584 74.9067 37.4988C74.9067 16.8393 58.1613 0.0908203 37.5019 0.0908203Z" fill="#ED1C24"/>
</g>
<defs>
<clipPath id="clip0_15_71">
<rect width="75" height="75" fill="white"/>
</clipPath>
</defs>
</svg>
