<svg width="85" height="78" viewBox="0 0 85 78" fill="none" xmlns="http://www.w3.org/2000/svg">
<path d="M84.5737 38.9044C84.5737 44.0133 83.4901 49.0723 81.3846 53.7924C79.2792 58.5125 76.1932 62.8013 72.3029 66.4139C68.4126 70.0265 63.794 72.8922 58.7111 74.8473C53.6281 76.8024 48.1802 77.8087 42.6785 77.8087C37.1767 77.8087 31.7288 76.8024 26.6458 74.8473C21.5629 72.8922 16.9444 70.0265 13.054 66.4139C9.16371 62.8013 6.07772 58.5125 3.97228 53.7924C1.86685 49.0723 0.783203 44.0133 0.783203 38.9044C0.783203 33.7954 1.86685 28.7364 3.97228 24.0163C6.07772 19.2962 9.16371 15.0074 13.054 11.3948C16.9444 7.78222 21.5629 4.91654 26.6458 2.96142C31.7288 1.00629 37.1767 0 42.6785 0C48.1802 0 53.6281 1.00629 58.7111 2.96142C63.794 4.91654 68.4126 7.78222 72.3029 11.3948C76.1932 15.0074 79.2792 19.2962 81.3846 24.0163C83.4901 28.7364 84.5737 33.7954 84.5737 38.9044Z" fill="white"/>
<path d="M55.4499 38.9045C55.4499 32.355 49.733 27.0459 42.6799 27.0459C35.6266 27.0459 29.9092 32.355 29.9092 38.9045C29.9092 45.4537 35.6266 50.763 42.6799 50.763C49.733 50.763 55.4499 45.4537 55.4499 38.9045Z" fill="#ED1C24"/>
<path d="M42.6804 0C38.6887 0 34.833 0.529351 31.1758 1.49755V22.5266C34.4835 20.5194 38.4329 19.3481 42.6795 19.3481C54.31 19.3481 63.7394 28.1037 63.7394 38.9042C63.7394 49.7048 54.31 58.4604 42.6795 58.4604C31.0482 58.4604 21.6188 49.7048 21.6188 38.9042C21.6188 38.5568 21.6295 38.2117 21.6483 37.8686L21.6188 37.8902V5.27853C9.16162 12.0208 0.783203 24.5501 0.783203 38.9042C0.783203 60.3903 19.5415 77.8087 42.6804 77.8087C65.8189 77.8087 84.5737 60.3903 84.5737 38.9042C84.5737 17.4184 65.8189 0 42.6804 0Z" fill="#ED1C24"/>
</svg>
