<svg width="141" height="47" viewBox="0 0 141 47" fill="none" xmlns="http://www.w3.org/2000/svg">
<path d="M15.2922 24.134L15.6677 24.2147C17.2063 24.3677 17.7031 24.9075 17.8702 25.1413C17.9962 25.3708 18.287 26.1401 18.287 29.1492V39.3455C18.3079 39.7318 18.2481 40.1183 18.1198 40.425C18.0374 40.578 17.7878 40.8883 16.7461 41.5046C16.2489 41.828 15.7321 42.0364 15.2074 42.1251C14.7396 42.2678 14.2666 42.3446 13.7925 42.3546C12.686 42.3824 11.5888 41.9774 10.5722 41.166C9.55568 40.3547 8.64251 39.1551 7.89216 37.6454C6.31005 34.479 5.48808 29.995 5.48808 24.3677C5.48808 17.4994 6.278 12.4672 7.90132 9.49201C9.5132 6.61887 11.3838 5.0718 13.4628 5.0718C15.5417 5.0718 17.1628 6.30436 18.4518 8.85448C19.1585 10.3222 19.8653 12.5607 20.572 15.5698L20.6979 16.0331H22.2022L21.9045 1.05535H20.4483L20.3247 1.51862C20.2422 1.98582 20.1009 2.4098 19.9126 2.75543C19.8301 2.90844 19.663 3.0657 19.125 3.0657C19.0814 3.0657 18.7082 2.98495 17.0025 2.06265C15.6772 1.35594 14.3059 0.991246 12.927 0.978847C9.15145 0.978847 6.02156 3.45247 3.73425 8.31896C1.65551 12.6748 0.5286 18.3154 0.574597 24.134C0.574597 31.0831 1.90486 36.7953 4.57224 40.9606C6.94427 44.7432 9.89557 46.5963 13.3872 46.5963C15.3862 46.5685 17.3685 45.9162 19.2509 44.6667C21.9526 42.9667 22.493 41.9636 22.493 40.9606V28.3799C22.493 26.6034 22.7013 25.3708 23.0333 24.831C23.1569 24.6738 23.4912 24.3635 24.4872 24.2105L24.8627 24.134V21.4946H15.2922V24.134ZM49.5126 4.45127L49.888 4.53202C51.0099 4.76153 51.7999 5.2248 52.1776 5.99834C52.386 6.38086 52.718 7.77068 52.718 12.0166V28.6902C52.718 32.6259 52.4684 35.5585 51.9693 37.4116C51.0535 40.6545 49.35 42.2739 46.6483 42.2739C44.2373 42.2739 42.614 40.731 41.7829 37.5646C41.3249 35.7881 41.0754 33.2422 41.0754 30.08V9.47076C41.0754 6.69113 41.3661 5.84108 41.5333 5.53507C41.7004 5.22905 42.2408 4.68503 43.8618 4.53202L44.235 4.45552V1.75239H33.6708V4.45127L34.044 4.53202C35.6261 4.76153 36.1665 5.30131 36.3336 5.61157C36.5007 5.92184 36.7915 6.76763 36.7915 9.54727V29.5232C36.7915 33.6119 37.1647 36.9314 37.9569 39.4772C39.3696 44.1865 42.0782 46.6601 45.9385 46.6601C49.8468 46.6601 52.5508 44.1865 54.0047 39.405C54.7534 36.8549 55.1702 33.2294 55.1702 28.6775V11.9401C55.1702 7.77493 55.5021 6.46162 55.7105 5.98984C55.9601 5.45007 56.5416 4.75303 58.039 4.44702L58.4122 4.37051V1.75239H49.5973V4.45552L49.5126 4.45127ZM86.3522 33.782C85.5211 37.2544 84.5641 39.4177 83.5681 40.2678C82.5286 41.1943 80.8206 41.6576 78.5768 41.6576C75.9575 41.6576 75.0851 41.5046 74.7943 41.3473C74.7119 41.2708 74.4623 41.1943 74.4623 39.8045V24.7545H79.369C81.1159 24.7545 81.6975 25.3708 81.8623 25.6811C82.1119 26.1443 82.4462 27.3004 82.737 30.233L82.8194 30.8493H84.3992V14.5625H82.8194L82.737 15.183C82.4462 18.0392 82.1119 19.2717 81.8623 19.735C81.6975 20.1218 81.1159 20.7381 79.369 20.7381H74.4623V7.1374C74.4623 6.13435 74.5448 5.90059 74.5448 5.90059C74.7436 5.75799 74.9579 5.70553 75.1698 5.74758H79.8681C82.279 5.74758 83.1949 6.36386 83.5315 6.82713C83.868 7.29041 84.3626 8.60372 84.6946 11.8466L84.777 12.4629H86.4415L86.2332 1.73538H67.0601V4.45127L67.4355 4.53202C68.9719 4.76153 69.471 5.30131 69.6382 5.61157C69.8053 5.92184 70.0526 6.84413 70.0526 9.54727V38.0237C70.0526 40.9563 69.7618 41.7298 69.6382 41.9594C69.471 42.2696 68.9307 42.7329 67.392 43.0432L67.0188 43.1197V45.742H86.3935L88.1816 33.4164H86.3935L86.3522 33.782ZM109.056 20.8146L106.02 17.3421C105.126 16.387 104.314 15.191 103.609 13.7932C103.138 12.7587 102.887 11.441 102.901 10.087C102.881 9.37775 102.953 8.6698 103.113 8.02416C103.273 7.37853 103.514 6.81457 103.817 6.38086C104.443 5.45732 105.223 4.96606 106.022 4.99104C107.144 4.99104 108.312 5.76458 109.473 7.30741C110.633 8.85023 111.469 11.5576 112.01 15.4891L112.092 16.1053H113.713L112.87 0.902344H111.455L111.373 1.44212C111.316 1.90706 111.218 2.35103 111.082 2.75543C110.928 2.9708 110.737 3.07905 110.544 3.06145C110.501 3.06145 110.21 2.98495 108.754 2.0584C107.802 1.36776 106.794 0.977032 105.773 0.902344C103.776 0.902344 102.109 2.0584 100.866 4.37476C100.252 5.50082 99.7687 6.8493 99.4469 8.33645C99.1251 9.8236 98.9714 11.4177 98.9954 13.0197C98.9954 15.6421 99.5335 18.0349 100.573 20.2748C101.231 21.5474 101.971 22.6625 102.778 23.5942L105.729 26.9944C107.394 28.924 108.477 30.3945 108.974 31.3168C109.328 31.9566 109.607 32.7258 109.793 33.5759C109.979 34.4259 110.068 35.3384 110.054 36.2556C110.054 38.3424 109.722 39.9618 109.015 41.1178C108.302 42.276 107.384 42.9082 106.437 42.8944C104.525 42.8944 102.945 41.5046 101.656 38.7249C100.907 37.1056 100.241 34.8658 99.6594 32.0904L99.577 31.6271H98.0384L99.2015 46.8301H100.658L100.699 46.2138C100.739 45.7761 100.824 45.3565 100.948 44.977C100.992 44.7475 101.157 44.6667 101.406 44.6667C101.448 44.6667 101.782 44.7475 103.277 45.7505C104.399 46.4928 105.58 46.8835 106.771 46.9066C108.974 46.9066 110.846 45.674 112.266 43.3577C112.966 42.2591 113.527 40.8864 113.908 39.3382C114.289 37.7899 114.48 36.1044 114.469 34.4025C114.496 31.8671 114.057 29.3902 113.223 27.3811C112.38 25.1413 111.009 23.0544 109.056 20.8146ZM139.368 26.9901C138.578 25.1413 137.163 23.0544 135.247 20.8146L132.211 17.3421C131.322 16.3837 130.514 15.188 129.813 13.7932C129.343 12.7587 129.091 11.441 129.106 10.087C129.085 9.37775 129.158 8.6698 129.318 8.02416C129.477 7.37853 129.719 6.81457 130.022 6.38086C130.648 5.45732 131.427 4.96606 132.227 4.99104C133.349 4.99104 134.516 5.76458 135.677 7.30741C136.838 8.85023 137.674 11.5576 138.214 15.4891L138.296 16.1053H139.917L139.075 0.902344H137.66L137.577 1.44212C137.521 1.90706 137.423 2.35103 137.287 2.75543C137.131 2.97143 136.94 3.07969 136.746 3.06145C136.705 3.06145 136.414 2.98495 134.958 2.0584C134.002 1.36536 132.989 0.974602 131.963 0.902344C129.969 0.902344 128.3 2.0584 127.057 4.37476C126.443 5.50143 125.96 6.85001 125.638 8.33702C125.317 9.82402 125.163 11.4178 125.186 13.0197C125.186 15.6421 125.727 18.0349 126.766 20.2748C127.423 21.5474 128.163 22.6626 128.969 23.5942L131.922 26.9944C133.584 28.924 134.67 30.3945 135.167 31.3168C135.521 31.957 135.799 32.7263 135.985 33.5763C136.171 34.4263 136.26 35.3385 136.247 36.2556C136.247 38.3424 135.913 39.9618 135.167 41.1178C134.452 42.2736 133.534 42.9053 132.586 42.8944C130.674 42.8944 129.095 41.5046 127.805 38.7249C127.057 37.1056 126.391 34.8658 125.809 32.0904L125.727 31.6271H124.188L125.351 46.8301H126.807L126.848 46.2138C126.892 45.788 126.962 45.373 127.057 44.977C127.098 44.7475 127.263 44.6667 127.515 44.6667C127.558 44.6667 127.89 44.7475 129.388 45.7505C130.509 46.4932 131.689 46.8839 132.879 46.9066C135.084 46.9066 136.955 45.674 138.374 43.3577C139.074 42.258 139.635 40.8845 140.015 39.3355C140.395 37.7865 140.587 36.1004 140.575 34.3982C140.614 31.3126 140.199 28.9962 139.368 26.9901Z" fill="white"/>
</svg>
