<svg width="126" height="74" viewBox="0 0 126 74" fill="none" xmlns="http://www.w3.org/2000/svg">
<path fill-rule="evenodd" clip-rule="evenodd" d="M9.18898 39.2153C9.75139 39.452 10.3743 39.6355 11.0346 39.7588C12.3413 39.9997 13.7434 39.9995 15.05 39.7584C15.714 39.6356 16.3406 39.4523 16.9066 39.2153C17.4774 38.9753 17.9791 38.6839 18.393 38.3518C19.2035 37.6978 19.6388 36.9107 19.6368 36.1034C19.6368 35.7069 19.5343 35.3085 19.3255 34.9252C18.8991 34.1406 18.052 33.4568 16.9092 32.9748C16.3439 32.737 15.7174 32.5532 15.0533 32.4302C13.7445 32.188 12.3396 32.1879 11.0307 32.4298C9.69182 32.6802 8.52652 33.1757 7.70719 33.8428C7.30114 34.1733 6.98727 34.5393 6.77726 34.9271C6.56974 35.3104 6.46728 35.708 6.46728 36.1034C6.46728 36.4988 6.56909 36.8923 6.77661 37.2721C7.20324 38.0541 8.04895 38.7354 9.18898 39.2153ZM23.4577 17.2656H2.62109L13.0611 31.079L23.4577 17.2656Z" fill="white"/>
<path fill-rule="evenodd" clip-rule="evenodd" d="M30.0694 50.5593C30.0687 50.9342 29.9422 51.3053 29.6972 51.6519C29.2 52.3508 28.2489 52.9063 27.052 53.1966C26.4586 53.3397 25.823 53.4134 25.1811 53.4136H24.1902C23.5508 53.4136 22.9108 53.3394 22.3193 53.1966C21.1222 52.9065 20.171 52.351 19.6742 51.6519C19.4292 51.3053 19.303 50.9341 19.3026 50.5593L19.2941 44.0847L8.01758 44.0756V48.9637C8.01758 49.9578 8.35739 50.9524 9.00717 51.8708C9.66168 52.7923 10.6199 53.6297 11.8274 54.3354C13.0357 55.0405 14.4695 55.6 16.0472 55.9821C17.6258 56.363 19.3169 56.5594 21.025 56.5604H27.9969C29.6991 56.5604 31.4014 56.362 32.9746 55.9821C34.5524 55.6 35.9861 55.0405 37.1944 54.3354C38.402 53.6298 39.3603 52.7923 40.0146 51.8708C40.6666 50.9488 41.0028 49.9612 41.0042 48.9637V17.2942L30.0642 17.3033L30.0694 50.5593ZM113.414 44.0847L113.405 49.8333C113.405 50.2067 113.277 50.5808 113.034 50.9258C112.788 51.2721 112.427 51.5867 111.973 51.8518C111.52 52.117 110.981 52.3273 110.388 52.4706C109.795 52.6138 109.159 52.6876 108.517 52.688H107.527C106.885 52.6876 106.249 52.6138 105.656 52.4706C105.063 52.3273 104.524 52.117 104.07 51.8518C103.618 51.5878 103.255 51.2709 103.01 50.9258C102.766 50.5808 102.638 50.207 102.638 49.8333L102.643 17.3033L91.7037 17.2942L91.7076 55.7454H123.937L123.946 44.0756L113.414 44.0847ZM82.5872 38.324C82.047 37.5771 81.2619 36.8991 80.276 36.3282C79.3551 35.7949 78.2496 35.3827 77.0336 35.1193C78.0453 34.8358 78.9741 34.4608 79.7858 34.0082C80.6126 33.5495 81.3421 33.0061 81.8337 32.3933C82.3273 31.7752 82.5831 31.1015 82.5834 30.4194L82.5898 23.4211C82.5898 22.6122 82.3136 21.8029 81.7857 21.0564C81.2579 20.31 80.4751 19.6268 79.4972 19.056C78.5206 18.4853 77.3513 18.0278 76.0738 17.7188C74.7963 17.4098 73.4118 17.248 72.026 17.248H50.2705V55.7473H72.8541C74.9434 55.7472 76.9857 55.3853 78.7229 54.7075C80.4601 54.0296 81.8141 53.0661 82.6138 51.9389C83.1435 51.189 83.4167 50.3858 83.418 49.5746C83.418 46.624 83.405 43.6738 83.418 40.7236C83.4179 39.8994 83.1354 39.0835 82.5872 38.324ZM60.8856 20.5649L66.6111 20.5535C67.2531 20.5532 67.8889 20.6269 68.482 20.7704C69.0752 20.9139 69.6139 21.1244 70.0675 21.3897C70.5208 21.654 70.8833 21.9706 71.1278 22.3157C71.3723 22.6607 71.4975 23.0345 71.5 23.4083L71.5305 31.1269C71.5308 31.5959 71.2928 32.0544 70.8466 32.4443C70.4004 32.8343 69.7662 33.1381 69.0241 33.3174C68.5312 33.4356 68.0038 33.497 67.471 33.498L60.8856 33.5128V20.5649ZM71.6356 50.7592C71.4317 51.0469 71.1327 51.3082 70.7557 51.5283C70.3787 51.7484 69.9311 51.923 69.4385 52.0419C68.9458 52.1605 68.4183 52.2219 67.8854 52.2226L60.8862 52.2374V36.972L67.0255 36.9607C67.6675 36.9602 68.3034 37.0338 68.8966 37.1773C69.4898 37.3208 70.0285 37.5314 70.4819 37.7969C70.9339 38.0608 71.2977 38.3778 71.5422 38.7228C71.7867 39.0678 71.9131 39.4416 71.9144 39.8154L71.9449 49.8522C71.9442 50.1634 71.8392 50.4716 71.6356 50.7592Z" fill="white"/>
</svg>
