<svg width="6" height="158" viewBox="0 0 6 158" fill="none" xmlns="http://www.w3.org/2000/svg">
<path d="M3 0.333333C1.52724 0.333333 0.333333 1.52724 0.333333 3C0.333333 4.47276 1.52724 5.66667 3 5.66667C4.47276 5.66667 5.66667 4.47276 5.66667 3C5.66667 1.52724 4.47276 0.333333 3 0.333333ZM3 152.333C1.52724 152.333 0.333333 153.527 0.333333 155C0.333333 156.473 1.52724 157.667 3 157.667C4.47276 157.667 5.66667 156.473 5.66667 155C5.66667 153.527 4.47276 152.333 3 152.333ZM2.5 3L2.5 155H3.5L3.5 3H2.5Z" fill="white"/>
</svg>
