<svg width="124" height="42" viewBox="0 0 124 42" fill="none" xmlns="http://www.w3.org/2000/svg">
<path d="M17.425 40.8728C16.8782 40.353 16.8901 40.2175 17.9675 34.688C18.5733 31.5787 19.132 28.0467 19.209 26.8391L19.3491 24.6436L17.9059 28.2845C15.3352 34.7697 13.4422 37.9187 10.9922 39.7857C9.45689 40.9557 6.61238 41.3495 4.70727 40.6559C0.823009 39.2418 -0.563666 32.4831 2.32107 29.0256C4.05835 26.9433 9.02739 27.7775 8.47077 30.0579C8.28736 30.8093 8.13714 30.8698 7.00412 30.6489C5.89996 30.4336 5.64895 30.5235 5.00052 31.3667C4.42701 32.1124 4.25922 32.7105 4.25922 34.0091C4.25922 35.4211 4.40076 35.8425 5.15042 36.6628C6.68755 38.3446 9.04921 37.7928 10.9518 35.3074C12.2663 33.5902 14.5285 28.1841 17.4249 19.8381C20.4344 11.1666 22.2458 6.4854 23.8193 3.31391C25.2455 0.439159 25.4719 0.19592 26.4302 0.508661C27.5153 0.862806 27.5719 2.13332 26.6251 4.88308C24.8395 10.0686 23.5558 16.1634 23.2168 21.0655L23.0215 23.8903L25.8527 18.6173C29.4457 11.9255 31.5224 8.5756 34.7839 4.21067C36.8654 1.42484 37.5523 0.726705 38.2118 0.726705C39.249 0.726705 39.5593 1.65697 38.9551 2.95584C38.7064 3.49063 37.2382 6.64002 35.6926 9.95449C29.9635 22.2397 27.3698 31.2585 28.2891 35.6978C28.6847 37.6079 29.3511 37.9141 30.9724 36.9307C32.7408 35.858 33.6362 34.6599 34.6814 31.9677C36.5925 27.0447 40.3834 23.3254 43.4898 23.3254C44.3052 23.3254 45.2328 23.5627 45.5512 23.8527C46.0475 24.3047 46.2095 24.3047 46.6849 23.8527C47.4077 23.1654 48.7017 23.178 49.1477 23.8767C49.4335 24.3245 49.1996 25.1905 47.9017 28.4906C47.0229 30.725 46.0025 33.2617 45.6341 34.1278C45.2658 34.9938 45.0535 35.8182 45.1623 35.9598C45.8254 36.8219 48.8198 32.6817 51.8681 26.6881C52.9219 24.6161 52.9299 24.572 52.4942 23.2162C51.928 21.4542 51.927 17.9549 52.4923 16.5334C52.9672 15.3395 54.2585 14.2859 55.2471 14.2859C55.5859 14.2859 56.2441 14.7813 56.7098 15.3869C57.4011 16.2858 57.5565 16.807 57.5565 18.2267C57.5565 19.2223 57.3088 20.5967 56.9772 21.4421C56.2145 23.386 56.2311 23.4591 57.3804 23.2166C58.57 22.9656 59.5841 23.7633 59.5841 24.9501C59.5841 25.4073 58.664 27.297 57.5313 29.166C53.6976 35.4916 53.0785 38.6645 55.9864 37.0847C57.8815 36.055 58.8408 34.8267 63.3511 27.6546C66.6358 22.4312 67.8919 20.6889 68.3727 20.6889C69.1133 20.6889 70.3015 21.667 70.3015 22.2767C70.3015 22.5051 69.759 23.6262 69.096 24.768L67.8906 26.8441L68.2751 28.5687C68.4866 29.5172 68.7163 31.0136 68.7856 31.894C68.8549 32.7744 68.9754 33.4948 69.0535 33.4948C69.1317 33.4948 69.946 32.8103 70.8632 31.9737C72.1938 30.7601 72.6813 30.0178 73.2751 28.3014C76.5224 18.9149 79.096 11.7007 79.4506 10.9903C79.9511 9.98755 81.6083 9.81604 82.1777 10.708C82.5621 11.3103 82.5555 11.3349 79.4649 20.7927L78.1386 24.8512L79.387 23.9C80.7561 22.8567 81.8211 22.6933 82.5196 23.4195C83.1776 24.1036 83.633 26.1894 83.4283 27.5812C83.2433 28.8388 81.8768 32.5366 80.5819 35.2838C80.1315 36.2393 79.9679 36.8846 80.176 36.8846C80.9579 36.8846 83.0021 34.1854 83.774 32.1338C84.7885 29.4375 87.924 25.2689 89.8534 24.0511C91.6827 22.8966 93.9984 22.8029 94.886 23.8474C95.4112 24.4654 95.5121 24.4821 95.6616 23.9756C96.0266 22.7388 98.688 22.939 98.688 24.2033C98.688 24.4892 97.7756 27.0129 96.6604 29.8115C95.5452 32.6101 94.6328 35.267 94.6328 35.7157C94.6328 37.1556 95.4271 37.036 96.9619 35.3652C98.1407 34.0818 98.7053 33.0209 99.8386 29.9593C102.659 22.3415 106.939 15.3242 110.85 11.9078C113.127 9.91853 115.199 10.1252 115.199 12.3417C115.199 13.5182 113.323 18.7773 112.035 21.211C110.719 23.6977 107.774 27.2812 105.04 29.7215C102.035 32.4034 101.921 32.5726 101.7 34.6637C101.485 36.7028 102.227 37.8879 103.465 37.4838C104.757 37.0623 107.411 33.1319 109.104 29.1316C111.333 23.8677 112.44 21.6317 114.284 18.6723C116.216 15.573 120.336 11.0604 121.553 10.7131C122.739 10.3743 123.564 10.7757 123.759 11.7862C123.964 12.8446 122.817 16.998 121.536 19.838C120.331 22.5089 116.345 27.7081 113.377 30.4816C111.045 32.6602 110.554 33.772 110.97 35.9296C111.508 38.7139 113.98 37.551 116.689 33.2391C118.263 30.7344 118.51 30.4824 118.895 30.9836C119.521 31.7981 119.196 32.9227 117.479 35.8808C115.853 38.6816 113.637 40.8368 111.987 41.2224C110.168 41.6473 108.233 39.998 107.575 37.462C107.523 37.2618 107.034 37.6458 106.488 38.3154C105.115 39.9994 102.848 41.4043 101.505 41.4043C100.649 41.4043 100.18 41.1419 99.5348 40.3033C99.0691 39.6978 98.688 38.8504 98.688 38.4201C98.688 37.9899 98.6173 37.6379 98.5308 37.6379C98.4443 37.6379 97.6948 38.304 96.8652 39.1182C94.317 41.6193 92.9868 41.8123 91.7694 39.8575L91.2816 39.0742L90.2779 39.8418C89.7258 40.264 88.6531 40.7895 87.8941 41.0097C86.2868 41.4758 85.0723 40.9818 83.9568 39.4082L83.274 38.4449L82.1236 39.5286C80.3674 41.1828 79.2115 41.5717 78.1576 40.8631C77.0676 40.1302 76.3823 38.8829 76.3911 37.6482C76.3949 37.1246 77.1769 34.758 78.1291 32.3891C79.0812 30.0201 79.8602 27.9439 79.8602 27.7752C79.8602 27.0521 79.031 27.5977 77.5646 29.2857C76.2036 30.8524 75.7744 31.7219 74.3601 35.7776C72.4926 41.1326 71.7935 42.05 70.3739 41.0079C69.5429 40.3978 69.3458 39.035 69.8652 37.4915C70.0225 37.0243 69.385 37.4373 68.0073 38.6954C64.5377 41.8637 61.7427 42.1226 59.825 39.4532L59.0507 38.3755L57.507 39.5768C56.4034 40.4358 55.4919 40.8264 54.3095 40.9471C52.7723 41.1041 52.5935 41.0352 51.775 39.9709C51.135 39.1386 50.8943 38.4714 50.8943 37.5291C50.8943 35.7212 52.6059 31.4637 54.3605 28.9072C55.2799 27.5675 55.7091 26.6717 55.5087 26.5107C55.1196 26.1979 55.2594 25.9906 52.4928 30.981C49.4408 36.486 47.6857 38.9039 45.9034 40.0588C44.0934 41.2315 42.891 41.2899 42.0367 40.2463L41.3971 39.4649L40.2192 40.2463C38.6853 41.2638 36.5813 41.2744 35.3154 40.2708C34.7923 39.8561 34.2906 39.2669 34.2005 38.9616C34.0683 38.5136 33.802 38.6163 32.8218 39.4932C30.7593 41.3384 28.2549 41.7725 26.4935 40.5903C25.1468 39.6863 24.6482 35.7932 25.1989 30.4816L25.4136 28.4101L24.5074 30.4816C21.9947 36.2255 18.9943 41.4043 18.1792 41.4043C18.0718 41.4043 17.7324 41.1651 17.425 40.8728ZM64.6663 37.4666C65.2436 36.716 65.3765 36.1672 65.3733 34.5477C65.3687 32.2381 65.1221 30.7803 64.7625 30.937C64.2522 31.1595 61.9014 35.2071 61.9014 35.8632C61.9014 36.6033 63.1305 38.3911 63.6393 38.3911C63.8131 38.3911 64.2752 37.9751 64.6663 37.4666ZM90.2037 35.5727C92.6109 32.8934 94.3271 26.335 92.6999 26.0336C90.5606 25.6375 86.5142 31.6152 86.4341 35.2899C86.3764 37.9378 87.9713 38.0574 90.2037 35.5727ZM40.2208 36.1761C42.1824 34.5585 43.7989 31.1962 44.1313 28.0421C44.3282 26.1743 43.9638 25.6842 42.6879 26.1006C40.0346 26.9665 36.0535 34.774 37.283 36.7004C37.8233 37.547 38.7613 37.3796 40.2208 36.1761ZM107.314 23.4195C109.384 20.7703 112.41 15.0392 111.74 15.0392C111.606 15.0392 110.466 16.454 109.207 18.1832C107.012 21.1985 104.214 26.3385 104.768 26.3385C104.914 26.3385 106.059 25.025 107.314 23.4195ZM116.778 22.7604C118.206 21.0535 121.076 15.0392 120.463 15.0392C119.625 15.0392 113.75 24.709 113.75 26.0886C113.75 26.3123 114.361 25.7397 115.107 24.8162C115.853 23.8927 116.605 22.9676 116.778 22.7604ZM55.2058 19.8984C55.4864 18.8517 55.2468 17.2991 54.8047 17.2991C54.4355 17.2991 54.0673 18.9997 54.2291 19.9577C54.4703 21.3852 54.8127 21.3644 55.2058 19.8984Z" fill="white"/>
</svg>
