<svg width="1315" height="442" viewBox="0 0 1315 442" fill="none" xmlns="http://www.w3.org/2000/svg">
<path d="M468.485 441.069C420.85 441.069 376.631 413.91 347.115 363.544C324.816 325.492 314.1 273.806 314.1 220.609C314.1 168.059 325.278 116.016 347.113 78.1651C374.524 30.6705 422.92 0.926758 468.485 0.926758C518.909 0.926758 559.267 25.0732 590.119 78.2956C612.07 116.167 622.682 167.979 622.682 220.614C622.682 271.632 611.42 325.964 590.119 363.544C561.39 414.237 516.242 441.069 468.485 441.069V383.017C493.768 383.017 517.221 366.421 533.601 335.437C549.866 304.664 557.445 266.838 557.445 220.609C557.445 176.322 549.27 134.917 533.601 105.549C517.441 75.2886 493.428 58.2606 468.485 58.2606C443.466 58.2606 419.437 75.1129 403.264 105.549C387.679 134.907 379.483 176.432 379.483 220.609C379.483 264.65 387.774 306.15 403.264 335.442C419.45 366.054 443.395 383.017 468.485 383.017V441.069ZM120.319 1.1376C94.8379 1.1376 65.8896 10.1988 41.293 31.0821C18.5922 50.339 0.0107476 81.4833 0.0107476 133.114C0.000185403 179.615 15.5451 206.849 15.1226 206.096C21.7345 217.667 32.3785 237.371 60.2072 248.942C72.6441 254.112 99.2344 262.054 125.714 267.315C151.998 272.586 177.864 277.596 188.4 282.666C196.771 286.718 210.832 292.235 210.832 322.224C210.832 352.094 196.018 361.21 193.444 363.188C190.872 365.121 173.101 380.623 141.156 380.623C117.57 380.623 89.2161 367.139 78.8811 360.111C66.9669 352.048 54.4693 341.386 42.8113 314.313C39.912 307.601 35.3385 289.142 35.3385 270.864H6.42726V424.879H38.5626V404.071C38.5626 401.702 40.1206 391.958 45.5152 396.591C52.2274 402.389 71.9312 417.304 92.5327 425.482C109.424 432.198 120.316 437.013 141.317 437.013C175.58 437.013 193.988 426.4 206.712 419.493C218.7 412.967 233.514 401.25 245.547 383.007C252.064 373.143 266.354 347.857 266.354 301.958C266.354 257.903 253.917 230.558 249.542 222.24C243.582 210.905 236.302 202.12 228.716 195.348C222.107 189.434 211.677 182.331 203.142 178.36C186.578 170.629 149.125 161.091 131.214 157.527C112.432 153.797 79.8502 148.667 66.8376 141.011C62.8926 138.687 54.8495 131.403 54.8495 113.652C54.8495 101.026 58.5278 90.3236 65.7972 81.6741C77.3363 67.9292 100.644 59.3851 124.94 59.3851C153.664 59.1843 177.988 71.6692 193.462 84.8217C198.725 89.2895 204.882 95.7051 209.773 103.295C215.291 111.85 223.039 129.626 225.84 154.42H251.797V20.3543H222.814V35.9365C222.814 40.9666 220.081 47.5027 214.914 42.1011C201.943 29.1645 165.272 1.25306 120.314 1.1376M755.459 25.4999L896.839 268.068L895.387 104.751C895.244 83.3357 893.168 74.395 880.985 74.395H854.403V25.54H975.287V74.395H949.357C936.93 74.395 936.146 81.9502 935.995 104.751L938.187 416.812H896.789L733.947 140.509L733.981 336.602C734.123 357.917 734.649 367.957 746.201 367.957H775.234V416.792H656.515V367.962H684.267C694.634 367.962 694.222 349.172 694.222 335.492V106.609C694.222 91.8347 693.132 74.4302 676.855 74.4302H654.337V25.4999H755.459ZM1113.42 367.867C1114.56 367.867 1119.6 367.59 1120.58 367.023C1121.81 366.317 1122.94 365.112 1123.9 363.491C1124.86 361.871 1125.62 359.873 1126.14 357.636C1126.51 355.979 1126.69 348.65 1126.69 347.059L1126.71 269.85C1126.71 267.993 1126.64 267.19 1124.98 263.053C1123.16 258.535 1050.93 102.914 1047.62 96.0615C1043.52 87.5526 1036.31 74.4001 1025.36 74.4001H1000.24V25.525H1142V74.3398H1124.91C1120.96 74.3398 1118.33 81.4683 1121.71 89.3899C1121.71 89.3899 1169.4 197.858 1169.85 198.992C1170.3 200.147 1170.68 200.423 1171.29 199.369C1171.88 198.29 1220.18 90.3839 1220.56 89.5305C1222.86 84.2996 1221.3 74.395 1216.35 74.395H1198.82V25.525H1315V74.395H1289.04C1279.63 74.395 1275.8 77.7083 1268.71 92.934C1265.47 99.9019 1192.47 258.319 1190.48 262.611C1189.44 264.855 1189.53 267.983 1189.53 269.84V347.038C1189.53 348.605 1189.72 355.944 1190.09 357.591C1190.6 359.831 1191.37 361.832 1192.33 363.453C1193.29 365.075 1194.43 366.277 1195.66 366.978C1196.64 367.55 1201.61 367.831 1202.74 367.831H1229.29V416.697H1088.26V367.826L1113.43 367.867H1113.42Z" fill="black"/>
</svg>
