<svg xmlns="http://www.w3.org/2000/svg" xmlns:xlink="http://www.w3.org/1999/xlink" width="500" zoomAndPan="magnify" viewBox="0 0 375 374.999991" height="500" preserveAspectRatio="xMidYMid meet" version="1.0"><defs><clipPath id="7ca690614c"><path d="M 9 54 L 375 54 L 375 302.453125 L 9 302.453125 Z M 9 54 " clip-rule="nonzero"/></clipPath><clipPath id="6796a5fea5"><path d="M 324 74 L 375 74 L 375 225 L 324 225 Z M 324 74 " clip-rule="nonzero"/></clipPath><clipPath id="d1b797a319"><path d="M 367.902344 69.816406 L 401.265625 220.671875 L 354.398438 231.035156 L 321.035156 80.179688 Z M 367.902344 69.816406 " clip-rule="nonzero"/></clipPath><clipPath id="709ba25020"><path d="M 367.902344 69.816406 L 401.265625 220.671875 L 354.398438 231.035156 L 321.035156 80.179688 Z M 367.902344 69.816406 " clip-rule="nonzero"/></clipPath><clipPath id="f6728b7aa2"><path d="M 142 151 L 364 151 L 364 311 L 142 311 Z M 142 151 " clip-rule="nonzero"/></clipPath><clipPath id="82f9851957"><path d="M 127.90625 101.417969 L 356.351562 79.472656 L 377.507812 299.710938 L 149.058594 321.65625 Z M 127.90625 101.417969 " clip-rule="nonzero"/></clipPath><clipPath id="071bb476f0"><path d="M 356.015625 79.507812 L 127.566406 101.449219 L 148.722656 321.6875 L 377.171875 299.742188 Z M 356.015625 79.507812 " clip-rule="nonzero"/></clipPath><clipPath id="d71d7e9da9"><path d="M 362.867188 151.402344 L 134.855469 173.304688 L 149.09375 321.527344 L 377.105469 299.625 Z M 362.867188 151.402344 " clip-rule="nonzero"/></clipPath><clipPath id="3afea58d21"><path d="M 305 84 L 362 84 L 362 195 L 305 195 Z M 305 84 " clip-rule="nonzero"/></clipPath><clipPath id="94daf9791e"><path d="M 127.90625 101.417969 L 356.351562 79.472656 L 377.507812 299.710938 L 149.058594 321.65625 Z M 127.90625 101.417969 " clip-rule="nonzero"/></clipPath><clipPath id="ed76a25d30"><path d="M 356.015625 79.507812 L 127.566406 101.449219 L 148.722656 321.6875 L 377.171875 299.742188 Z M 356.015625 79.507812 " clip-rule="nonzero"/></clipPath><clipPath id="d78f2e0aac"><path d="M 142 151 L 364 151 L 364 311 L 142 311 Z M 142 151 " clip-rule="nonzero"/></clipPath><clipPath id="1e8fd671bf"><path d="M 127.90625 101.417969 L 356.351562 79.472656 L 377.507812 299.710938 L 149.058594 321.65625 Z M 127.90625 101.417969 " clip-rule="nonzero"/></clipPath><clipPath id="4575709cbb"><path d="M 356.015625 79.507812 L 127.566406 101.449219 L 148.722656 321.6875 L 377.171875 299.742188 Z M 356.015625 79.507812 " clip-rule="nonzero"/></clipPath><clipPath id="8fc55361bf"><path d="M 362.867188 151.402344 L 134.855469 173.304688 L 149.09375 321.527344 L 377.105469 299.625 Z M 362.867188 151.402344 " clip-rule="nonzero"/></clipPath><clipPath id="da080532dc"><path d="M 305 84 L 362 84 L 362 195 L 305 195 Z M 305 84 " clip-rule="nonzero"/></clipPath><clipPath id="32eec1a33b"><path d="M 127.90625 101.417969 L 356.351562 79.472656 L 377.507812 299.710938 L 149.058594 321.65625 Z M 127.90625 101.417969 " clip-rule="nonzero"/></clipPath><clipPath id="ea029d7235"><path d="M 356.015625 79.507812 L 127.566406 101.449219 L 148.722656 321.6875 L 377.171875 299.742188 Z M 356.015625 79.507812 " clip-rule="nonzero"/></clipPath></defs><g clip-path="url(#7ca690614c)"><path fill="#008cdc" d="M 140.566406 65.023438 C 66.71875 90.816406 12.460938 159.660156 9.179688 242.558594 C 8.355469 263.375 10.820312 283.5625 16.082031 302.621094 L 16.703125 302.410156 C 11.511719 283.628906 9.140625 263.714844 10.058594 243.164062 C 10.261719 238.691406 10.625 234.261719 11.125 229.875 C 26.261719 232.3125 41.664062 233.871094 57.285156 234.546875 C 58.710938 251.929688 61.960938 269 66.757812 285.40625 L 67.203125 285.253906 C 62.425781 268.917969 59.25 251.914062 57.929688 234.574219 C 70.742188 235.109375 83.699219 235.039062 96.765625 234.328125 C 105.503906 233.851562 114.152344 233.089844 122.71875 232.070312 C 125.234375 242.636719 128.125 253.128906 131.363281 263.453125 L 131.621094 263.367188 C 128.390625 253.058594 125.503906 242.578125 123.011719 232.027344 C 149.957031 228.792969 176.019531 222.90625 200.945312 214.644531 L 214.078125 251.929688 L 201.566406 214.433594 C 225.890625 206.328125 249.140625 195.972656 271.066406 183.605469 C 275.171875 192.816406 279.035156 202.328125 282.601562 212.0625 L 282.859375 211.976562 C 279.285156 202.226562 275.417969 192.699219 271.324219 183.460938 C 288.976562 173.488281 305.777344 162.222656 321.601562 149.792969 C 329.769531 162.835938 336.839844 176.894531 342.585938 191.683594 L 343.070312 191.519531 C 337.292969 176.667969 330.234375 162.53125 322.101562 149.394531 C 332.808594 140.953125 343.074219 131.980469 352.847656 122.515625 C 366.9375 138.503906 378.359375 156.8125 386.464844 176.773438 L 387.101562 176.558594 C 358.996094 107.386719 292.457031 57.402344 212.996094 54.261719 C 193.003906 53.46875 173.597656 55.703125 155.203125 60.546875 C 153.628906 60.921875 152.070312 61.328125 150.523438 61.769531 C 149.324219 62.058594 148.148438 62.417969 147 62.832031 C 146.90625 62.867188 146.820312 62.910156 146.726562 62.945312 C 145.910156 63.210938 145.085938 63.472656 144.273438 63.757812 C 144.113281 63.816406 143.957031 63.882812 143.796875 63.941406 C 142.71875 64.296875 141.636719 64.644531 140.566406 65.019531 Z M 147.09375 66.230469 C 147.5625 66.082031 148.03125 65.933594 148.5 65.789062 L 156.425781 88.261719 C 144.738281 92.023438 132.960938 94.933594 121.160156 97.03125 C 127.03125 81.339844 135.855469 70.699219 147.09375 66.230469 Z M 151.625 64.84375 C 151.910156 64.761719 152.199219 64.691406 152.488281 64.609375 C 160.609375 62.898438 169.800781 64.097656 179.917969 68.621094 C 183.503906 70.222656 187.105469 72.207031 190.71875 74.53125 C 181.023438 79.210938 170.957031 83.359375 160.523438 86.90625 C 160.0625 87.0625 159.601562 87.203125 159.140625 87.359375 Z M 133.644531 71.664062 C 127.605469 77.835938 122.710938 86.511719 119.121094 97.375 C 111.628906 98.648438 104.121094 99.585938 96.632812 100.207031 C 107.28125 88.105469 119.757812 78.4375 133.644531 71.664062 Z M 166.421875 61.625 C 177.167969 60.097656 188.421875 60.101562 200.0625 61.773438 C 203.648438 62.289062 207.210938 62.96875 210.746094 63.78125 C 204.863281 67.269531 198.8125 70.5625 192.601562 73.621094 C 188.082031 70.460938 183.554688 67.832031 179.070312 65.789062 C 174.675781 63.785156 170.457031 62.40625 166.421875 61.621094 Z M 114.28125 79.957031 C 106.542969 85.796875 99.414062 92.675781 93.015625 100.492188 C 89.464844 100.738281 85.925781 100.90625 82.382812 101.007812 C 92.273438 93.015625 102.957031 85.949219 114.28125 79.953125 Z M 189.023438 57.828125 C 197.132812 57.105469 205.367188 56.851562 213.703125 57.136719 C 216.078125 57.21875 218.449219 57.355469 220.796875 57.519531 C 218.492188 59.027344 216.160156 60.511719 213.800781 61.953125 C 209.011719 60.675781 204.164062 59.652344 199.285156 58.921875 C 195.832031 58.402344 192.410156 58.054688 189.027344 57.828125 Z M 79.285156 103.5625 C 83.164062 103.5 87.050781 103.355469 90.945312 103.121094 C 83.65625 112.492188 77.359375 123.113281 72.21875 134.800781 C 65.007812 134.53125 57.839844 134 50.726562 133.214844 C 59.183594 122.367188 68.761719 112.421875 79.285156 103.5625 Z M 224.867188 57.84375 C 241.125 59.316406 256.746094 62.742188 271.527344 67.886719 C 266.273438 72.195312 260.859375 76.351562 255.296875 80.308594 C 243.125 72.679688 230.316406 66.761719 217.089844 62.875 C 219.714844 61.238281 222.3125 59.5625 224.867188 57.84375 Z M 94.316406 102.917969 C 94.320312 102.910156 94.332031 102.914062 94.332031 102.910156 C 102.304688 102.328125 110.292969 101.378906 118.28125 100.0625 C 115.378906 109.707031 113.445312 120.941406 112.574219 133.554688 C 99.707031 134.824219 86.90625 135.25 74.238281 134.863281 C 79.765625 123 86.507812 112.285156 94.316406 102.917969 Z M 214.242188 64.628906 C 227.9375 68.160156 241.203125 73.84375 253.789062 81.375 C 243.558594 88.554688 232.8125 95.101562 221.613281 100.984375 C 212.847656 90.613281 203.875 81.917969 194.890625 75.28125 C 201.527344 71.976562 207.984375 68.421875 214.242188 64.628906 Z M 120.203125 99.734375 C 132.578125 97.605469 144.949219 94.578125 157.234375 90.617188 L 168.503906 122.589844 C 159.40625 125.292969 150.101562 127.597656 140.59375 129.457031 C 131.578125 131.21875 122.566406 132.535156 113.59375 133.453125 C 114.683594 120.644531 116.933594 109.328125 120.203125 99.734375 Z M 193.132812 76.128906 C 202.40625 82.476562 211.679688 91.066406 220.730469 101.457031 C 204.921875 109.695312 188.199219 116.574219 170.664062 121.933594 L 159.914062 89.726562 C 160.371094 89.570312 160.824219 89.433594 161.28125 89.277344 C 172.316406 85.53125 182.9375 81.117188 193.136719 76.128906 Z M 49.761719 134.464844 C 57.015625 135.226562 64.335938 135.722656 71.699219 135.957031 C 65.738281 149.796875 61.398438 165.109375 58.902344 181.589844 C 47.347656 180.964844 35.882812 179.753906 24.550781 177.984375 C 31.058594 162.335938 39.582031 147.738281 49.761719 134.464844 Z M 272.699219 68.292969 C 286.902344 73.339844 300.292969 79.976562 312.6875 87.96875 C 305.339844 94.984375 297.65625 101.683594 289.667969 108.046875 C 279.25 97.53125 268 88.367188 256.125 80.832031 C 261.800781 76.832031 267.339844 72.65625 272.699219 68.292969 Z M 73.699219 136.007812 C 86.519531 136.332031 99.476562 135.851562 112.511719 134.5 C 111.628906 148.195312 111.996094 163.492188 113.71875 180.125 C 95.695312 182.066406 77.753906 182.546875 60.023438 181.652344 C 62.746094 165.128906 67.402344 149.808594 73.699219 136.007812 Z M 254.636719 81.878906 C 266.753906 89.226562 278.21875 98.277344 288.824219 108.71875 C 275.742188 119.070312 261.839844 128.523438 247.160156 136.9375 C 239.175781 123.800781 230.757812 111.886719 222.128906 101.601562 C 233.445312 95.683594 244.285156 89.085938 254.636719 81.878906 Z M 113.527344 134.382812 C 122.234375 133.453125 130.96875 132.15625 139.722656 130.449219 C 149.621094 128.511719 159.292969 126.105469 168.757812 123.273438 L 183.511719 165.164062 C 175.785156 167.679688 167.925781 169.941406 159.914062 171.929688 C 144.699219 175.714844 129.441406 178.398438 114.253906 180.058594 C 112.640625 163.359375 112.433594 148.039062 113.527344 134.382812 Z M 221.257812 102.046875 C 230.039062 112.203125 238.597656 124.054688 246.703125 137.1875 C 227.390625 148.222656 206.753906 157.484375 184.945312 164.695312 L 170.902344 122.621094 C 188.515625 117.214844 205.34375 110.300781 221.261719 102.046875 Z M 23.867188 179.703125 C 35.34375 181.410156 46.964844 182.566406 58.675781 183.113281 C 56.703125 196.804688 56.007812 211.292969 56.742188 226.402344 C 56.855469 228.710938 57.007812 231.007812 57.183594 233.308594 C 41.660156 232.550781 26.339844 230.875 11.289062 228.339844 C 13.363281 211.339844 17.667969 195.03125 23.867188 179.703125 Z M 313.769531 88.660156 C 327.742188 97.800781 340.40625 108.695312 351.480469 121 C 341.855469 130.476562 331.730469 139.457031 321.171875 147.917969 C 312.125 133.535156 301.789062 120.363281 290.449219 108.800781 C 298.539062 102.417969 306.320312 95.691406 313.769531 88.660156 Z M 59.785156 183.152344 C 77.625 183.925781 95.683594 183.316406 113.835938 181.253906 C 114.679688 189.15625 115.828125 197.351562 117.296875 205.820312 C 118.761719 214.261719 120.503906 222.710938 122.484375 231.105469 C 114.429688 232.046875 106.292969 232.734375 98.082031 233.183594 C 84.542969 233.921875 71.121094 233.957031 57.847656 233.332031 C 57.699219 231.242188 57.558594 229.148438 57.464844 227.054688 C 56.78125 211.710938 57.609375 197.015625 59.785156 183.152344 Z M 289.605469 109.488281 C 301.09375 120.917969 311.550781 133.984375 320.667969 148.316406 C 304.980469 160.847656 288.3125 172.207031 270.773438 182.257812 C 263.667969 166.347656 255.875 151.351562 247.601562 137.667969 C 262.378906 129.242188 276.410156 119.828125 289.605469 109.484375 Z M 114.351562 181.195312 C 129.1875 179.488281 144.070312 176.816406 158.953125 173.117188 C 167.382812 171.023438 175.652344 168.617188 183.777344 165.953125 L 200.605469 213.71875 C 175.738281 222.019531 149.707031 227.898438 122.777344 231.0625 C 120.875 222.921875 119.214844 214.738281 117.8125 206.546875 C 116.316406 197.792969 115.167969 189.335938 114.355469 181.195312 Z M 247.144531 137.917969 C 255.5 151.53125 263.367188 166.5 270.515625 182.402344 C 248.679688 194.890625 225.519531 205.351562 201.242188 213.5 L 185.214844 165.484375 C 207.054688 158.21875 227.75 148.941406 247.148438 137.917969 Z M 247.144531 137.917969 " fill-opacity="1" fill-rule="nonzero"/></g><g clip-path="url(#6796a5fea5)"><g clip-path="url(#d1b797a319)"><g clip-path="url(#709ba25020)"><path fill="#ffffff" d="M 324.777344 93.289062 C 324.617188 93.417969 324.488281 93.578125 324.394531 93.765625 C 324.304688 93.957031 324.253906 94.152344 324.246094 94.363281 C 324.242188 94.570312 324.277344 94.773438 324.359375 94.964844 C 324.441406 95.160156 324.558594 95.324219 324.714844 95.46875 C 336.769531 106.53125 347.660156 127.234375 353.183594 152.214844 C 358.707031 177.195312 357.566406 200.5625 351.300781 215.675781 C 351.21875 215.867188 351.183594 216.070312 351.191406 216.277344 C 351.199219 216.488281 351.25 216.6875 351.34375 216.875 C 351.4375 217.058594 351.566406 217.21875 351.730469 217.351562 C 351.890625 217.480469 352.074219 217.574219 352.277344 217.625 L 380.773438 224.898438 C 380.949219 224.941406 381.125 224.953125 381.304688 224.933594 C 381.480469 224.910156 381.648438 224.859375 381.808594 224.773438 C 381.96875 224.6875 382.105469 224.578125 382.222656 224.441406 C 382.34375 224.308594 382.429688 224.152344 382.492188 223.984375 C 383.757812 220.425781 384.8125 216.804688 385.660156 213.125 C 390.238281 193.375 389.835938 169.28125 384.527344 145.28125 C 379.222656 121.285156 369.425781 99.269531 356.945312 83.292969 C 354.625 80.308594 352.140625 77.472656 349.492188 74.78125 C 349.367188 74.652344 349.21875 74.550781 349.054688 74.476562 C 348.890625 74.402344 348.71875 74.363281 348.539062 74.351562 C 348.359375 74.34375 348.183594 74.367188 348.015625 74.421875 C 347.84375 74.476562 347.6875 74.5625 347.546875 74.675781 Z M 324.777344 93.289062 " fill-opacity="1" fill-rule="nonzero"/></g></g></g><g clip-path="url(#f6728b7aa2)"><g clip-path="url(#82f9851957)"><g clip-path="url(#071bb476f0)"><g clip-path="url(#d71d7e9da9)"><path fill="#cc6e3b" d="M 143.15625 257.078125 L 260.804688 310.726562 C 261.164062 310.890625 261.5625 310.601562 261.523438 310.210938 L 258.183594 275.421875 C 366.328125 255.101562 366.394531 168.351562 362.640625 151.878906 C 325.835938 218.78125 253.15625 223.078125 253.15625 223.078125 L 249.160156 181.5 C 249.125 181.113281 248.679688 180.90625 248.359375 181.132812 L 143.070312 256.199219 C 142.75 256.425781 142.796875 256.914062 143.15625 257.078125 " fill-opacity="1" fill-rule="nonzero"/></g></g></g></g><g clip-path="url(#3afea58d21)"><g clip-path="url(#94daf9791e)"><g clip-path="url(#ed76a25d30)"><path fill="#cc6e3b" d="M 361.449219 148.210938 C 361.449219 148.210938 355.089844 109.355469 305.976562 84.609375 C 305.503906 84.371094 304.996094 84.917969 305.300781 85.351562 C 311.484375 94.109375 337.820312 136.058594 321.523438 194.785156 C 321.523438 194.785156 348.742188 173.484375 361.449219 148.210938 " fill-opacity="1" fill-rule="nonzero"/></g></g></g><g clip-path="url(#d78f2e0aac)"><g clip-path="url(#1e8fd671bf)"><g clip-path="url(#4575709cbb)"><g clip-path="url(#8fc55361bf)"><path fill="#f2753c" d="M 143.15625 257.078125 L 260.804688 310.726562 C 261.164062 310.890625 261.5625 310.601562 261.523438 310.210938 L 258.183594 275.421875 C 366.328125 255.101562 366.394531 168.351562 362.640625 151.878906 C 325.835938 218.78125 253.15625 223.078125 253.15625 223.078125 L 249.160156 181.5 C 249.125 181.113281 248.679688 180.90625 248.359375 181.132812 L 143.070312 256.199219 C 142.75 256.425781 142.796875 256.914062 143.15625 257.078125 " fill-opacity="1" fill-rule="nonzero"/></g></g></g></g><g clip-path="url(#da080532dc)"><g clip-path="url(#32eec1a33b)"><g clip-path="url(#ea029d7235)"><path fill="#ffab7c" d="M 361.449219 148.210938 C 361.449219 148.210938 355.089844 109.355469 305.976562 84.609375 C 305.503906 84.371094 304.996094 84.917969 305.300781 85.351562 C 311.484375 94.109375 337.820312 136.058594 321.523438 194.785156 C 321.523438 194.785156 348.742188 173.484375 361.449219 148.210938 " fill-opacity="1" fill-rule="nonzero"/></g></g></g></svg>