<svg xmlns="http://www.w3.org/2000/svg" xmlns:xlink="http://www.w3.org/1999/xlink" width="500" zoomAndPan="magnify" viewBox="0 0 375 374.999991" height="500" preserveAspectRatio="xMidYMid meet" version="1.0"><defs><g/><clipPath id="b380b0e8d3"><path d="M 108 102 L 277.347656 102 L 277.347656 212.859375 L 108 212.859375 Z M 108 102 " clip-rule="nonzero"/></clipPath><clipPath id="7e68cddc8f"><path d="M 108 103.34375 L 277.347656 103.34375 L 277.347656 214.34375 L 108 214.34375 Z M 108 103.34375 " clip-rule="nonzero"/></clipPath><clipPath id="3282978b47"><path d="M 248 111 L 278 111 L 278 179 L 248 179 Z M 248 111 " clip-rule="nonzero"/></clipPath><clipPath id="d12e262a22"><path d="M 268.460938 109.171875 L 283.363281 176.542969 L 262.125 181.238281 L 247.226562 113.867188 Z M 268.460938 109.171875 " clip-rule="nonzero"/></clipPath><clipPath id="51114b908a"><path d="M 268.460938 109.171875 L 283.363281 176.542969 L 262.125 181.238281 L 247.226562 113.867188 Z M 268.460938 109.171875 " clip-rule="nonzero"/></clipPath><clipPath id="37f7b7cc65"><path d="M 167 145 L 267 145 L 267 217 L 167 217 Z M 167 145 " clip-rule="nonzero"/></clipPath><clipPath id="118e0526b7"><path d="M 161.316406 123.277344 L 262.851562 113.523438 L 272.316406 212.070312 L 170.785156 221.820312 Z M 161.316406 123.277344 " clip-rule="nonzero"/></clipPath><clipPath id="0eaf8c72b2"><path d="M 263.152344 113.492188 L 161.621094 123.246094 L 171.085938 221.792969 L 272.621094 212.039062 Z M 263.152344 113.492188 " clip-rule="nonzero"/></clipPath><clipPath id="44a8da9232"><path d="M 266.210938 145.589844 L 164.421875 155.367188 L 170.777344 221.535156 L 272.566406 211.757812 Z M 266.210938 145.589844 " clip-rule="nonzero"/></clipPath><clipPath id="e2446fda2a"><path d="M 240 115 L 266 115 L 266 165 L 240 165 Z M 240 115 " clip-rule="nonzero"/></clipPath><clipPath id="12bb313a18"><path d="M 161.316406 123.277344 L 262.851562 113.523438 L 272.316406 212.070312 L 170.785156 221.820312 Z M 161.316406 123.277344 " clip-rule="nonzero"/></clipPath><clipPath id="1e7e152d17"><path d="M 263.152344 113.492188 L 161.621094 123.246094 L 171.085938 221.792969 L 272.621094 212.039062 Z M 263.152344 113.492188 " clip-rule="nonzero"/></clipPath><clipPath id="f5552225a9"><path d="M 167 145 L 267 145 L 267 217 L 167 217 Z M 167 145 " clip-rule="nonzero"/></clipPath><clipPath id="eb6ea7a75d"><path d="M 161.316406 123.277344 L 262.851562 113.523438 L 272.316406 212.070312 L 170.785156 221.820312 Z M 161.316406 123.277344 " clip-rule="nonzero"/></clipPath><clipPath id="77b39aaea0"><path d="M 263.152344 113.492188 L 161.621094 123.246094 L 171.085938 221.792969 L 272.621094 212.039062 Z M 263.152344 113.492188 " clip-rule="nonzero"/></clipPath><clipPath id="d6bf363926"><path d="M 266.210938 145.589844 L 164.421875 155.367188 L 170.777344 221.535156 L 272.566406 211.757812 Z M 266.210938 145.589844 " clip-rule="nonzero"/></clipPath><clipPath id="fef8544370"><path d="M 240 115 L 266 115 L 266 165 L 240 165 Z M 240 115 " clip-rule="nonzero"/></clipPath><clipPath id="02d5ece7ff"><path d="M 161.316406 123.277344 L 262.851562 113.523438 L 272.316406 212.070312 L 170.785156 221.820312 Z M 161.316406 123.277344 " clip-rule="nonzero"/></clipPath><clipPath id="aaa341106e"><path d="M 263.152344 113.492188 L 161.621094 123.246094 L 171.085938 221.792969 L 272.621094 212.039062 Z M 263.152344 113.492188 " clip-rule="nonzero"/></clipPath></defs><rect x="-37.5" width="450" fill="#ffffff" y="-37.499999" height="449.999989" fill-opacity="1"/><rect x="-37.5" width="450" fill="#ffffff" y="-37.499999" height="449.999989" fill-opacity="1"/><g clip-path="url(#b380b0e8d3)"><path fill="#008cdc" d="M 166.964844 107.027344 C 133.996094 118.542969 109.773438 149.277344 108.308594 186.289062 C 107.941406 195.582031 109.039062 204.59375 111.390625 213.101562 L 111.667969 213.007812 C 109.347656 204.625 108.289062 195.730469 108.699219 186.558594 C 108.789062 184.5625 108.953125 182.582031 109.175781 180.625 C 115.933594 181.710938 122.8125 182.410156 129.785156 182.710938 C 130.421875 190.46875 131.871094 198.089844 134.011719 205.417969 L 134.210938 205.347656 C 132.078125 198.054688 130.660156 190.464844 130.070312 182.722656 C 135.792969 182.960938 141.578125 182.929688 147.410156 182.613281 C 151.3125 182.398438 155.171875 182.0625 158.996094 181.605469 C 160.121094 186.320312 161.410156 191.003906 162.855469 195.617188 L 162.972656 195.578125 C 161.527344 190.976562 160.238281 186.296875 159.128906 181.585938 C 171.15625 180.140625 182.792969 177.511719 193.921875 173.824219 L 199.78125 190.472656 L 194.199219 173.730469 C 205.058594 170.113281 215.4375 165.488281 225.226562 159.96875 C 227.058594 164.082031 228.78125 168.328125 230.375 172.671875 L 230.492188 172.632812 C 228.894531 168.28125 227.167969 164.027344 225.339844 159.902344 C 233.222656 155.449219 240.722656 150.421875 247.785156 144.871094 C 251.433594 150.695312 254.589844 156.972656 257.15625 163.574219 L 257.371094 163.5 C 254.792969 156.871094 251.640625 150.558594 248.007812 144.695312 C 252.789062 140.925781 257.375 136.917969 261.738281 132.695312 C 268.027344 139.832031 273.125 148.007812 276.742188 156.917969 L 277.027344 156.820312 C 264.480469 125.9375 234.773438 103.625 199.300781 102.222656 C 190.375 101.867188 181.710938 102.867188 173.5 105.027344 C 172.796875 105.195312 172.101562 105.378906 171.410156 105.574219 C 170.875 105.703125 170.347656 105.863281 169.835938 106.050781 C 169.792969 106.0625 169.757812 106.085938 169.714844 106.097656 C 169.347656 106.21875 168.980469 106.335938 168.621094 106.464844 C 168.546875 106.488281 168.476562 106.519531 168.40625 106.542969 C 167.925781 106.703125 167.441406 106.859375 166.964844 107.027344 Z M 169.878906 107.566406 C 170.085938 107.5 170.296875 107.433594 170.507812 107.367188 L 174.042969 117.402344 C 168.828125 119.082031 163.570312 120.378906 158.300781 121.316406 C 160.921875 114.3125 164.859375 109.558594 169.878906 107.566406 Z M 171.902344 106.945312 C 172.027344 106.910156 172.160156 106.878906 172.285156 106.839844 C 175.914062 106.078125 180.015625 106.613281 184.53125 108.632812 C 186.132812 109.347656 187.742188 110.234375 189.355469 111.273438 C 185.027344 113.359375 180.53125 115.214844 175.875 116.796875 C 175.667969 116.867188 175.460938 116.929688 175.257812 117 Z M 163.875 109.992188 C 161.179688 112.746094 158.992188 116.621094 157.390625 121.472656 C 154.046875 122.039062 150.695312 122.457031 147.351562 122.734375 C 152.105469 117.332031 157.675781 113.015625 163.875 109.992188 Z M 178.507812 105.507812 C 183.304688 104.828125 188.328125 104.828125 193.527344 105.578125 C 195.128906 105.808594 196.71875 106.109375 198.296875 106.472656 C 195.667969 108.03125 192.96875 109.5 190.195312 110.863281 C 188.175781 109.453125 186.15625 108.28125 184.15625 107.371094 C 182.191406 106.472656 180.308594 105.859375 178.507812 105.507812 Z M 155.230469 113.695312 C 151.777344 116.300781 148.59375 119.371094 145.734375 122.863281 C 144.152344 122.972656 142.570312 123.046875 140.988281 123.09375 C 145.402344 119.523438 150.171875 116.371094 155.230469 113.695312 Z M 188.597656 103.816406 C 192.21875 103.492188 195.894531 103.378906 199.617188 103.507812 C 200.675781 103.542969 201.734375 103.601562 202.785156 103.675781 C 201.753906 104.351562 200.714844 105.011719 199.660156 105.65625 C 197.523438 105.085938 195.359375 104.628906 193.179688 104.304688 C 191.636719 104.070312 190.109375 103.914062 188.597656 103.816406 Z M 139.605469 124.234375 C 141.335938 124.203125 143.074219 124.140625 144.8125 124.035156 C 141.558594 128.21875 138.746094 132.960938 136.449219 138.179688 C 133.230469 138.058594 130.03125 137.820312 126.855469 137.472656 C 130.632812 132.628906 134.90625 128.1875 139.605469 124.234375 Z M 204.601562 103.824219 C 211.859375 104.480469 218.832031 106.007812 225.429688 108.304688 C 223.085938 110.230469 220.667969 112.085938 218.183594 113.851562 C 212.75 110.445312 207.03125 107.804688 201.128906 106.066406 C 202.300781 105.335938 203.460938 104.589844 204.601562 103.824219 Z M 146.316406 123.945312 C 146.316406 123.941406 146.324219 123.945312 146.324219 123.941406 C 149.882812 123.683594 153.449219 123.257812 157.015625 122.671875 C 155.71875 126.976562 154.855469 131.992188 154.46875 137.621094 C 148.722656 138.191406 143.007812 138.378906 137.351562 138.207031 C 139.820312 132.910156 142.832031 128.125 146.316406 123.945312 Z M 199.855469 106.851562 C 205.96875 108.425781 211.894531 110.964844 217.511719 114.328125 C 212.945312 117.535156 208.148438 120.453125 203.148438 123.082031 C 199.234375 118.453125 195.226562 114.570312 191.21875 111.609375 C 194.179688 110.132812 197.0625 108.542969 199.855469 106.851562 Z M 157.875 122.523438 C 163.398438 121.574219 168.921875 120.222656 174.40625 118.453125 L 179.4375 132.726562 C 175.375 133.933594 171.222656 134.964844 166.976562 135.792969 C 162.953125 136.578125 158.929688 137.167969 154.921875 137.578125 C 155.410156 131.859375 156.414062 126.808594 157.871094 122.523438 Z M 190.433594 111.984375 C 194.570312 114.820312 198.710938 118.652344 202.753906 123.292969 C 195.695312 126.972656 188.230469 130.042969 180.402344 132.433594 L 175.601562 118.054688 C 175.804688 117.988281 176.007812 117.925781 176.210938 117.855469 C 181.140625 116.183594 185.878906 114.210938 190.433594 111.984375 Z M 126.425781 138.027344 C 129.664062 138.371094 132.933594 138.589844 136.21875 138.695312 C 133.558594 144.875 131.621094 151.710938 130.507812 159.066406 C 125.347656 158.789062 120.230469 158.246094 115.171875 157.457031 C 118.074219 150.472656 121.878906 143.957031 126.425781 138.027344 Z M 225.953125 108.488281 C 232.292969 110.738281 238.273438 113.703125 243.808594 117.273438 C 240.527344 120.402344 237.097656 123.394531 233.53125 126.234375 C 228.878906 121.539062 223.855469 117.449219 218.554688 114.085938 C 221.089844 112.296875 223.5625 110.433594 225.953125 108.488281 Z M 137.113281 138.71875 C 142.835938 138.863281 148.621094 138.648438 154.4375 138.042969 C 154.046875 144.160156 154.207031 150.988281 154.976562 158.414062 C 146.929688 159.28125 138.921875 159.496094 131.007812 159.09375 C 132.222656 151.71875 134.300781 144.878906 137.113281 138.71875 Z M 217.890625 114.550781 C 223.300781 117.832031 228.417969 121.871094 233.152344 126.535156 C 227.3125 131.15625 221.105469 135.375 214.554688 139.132812 C 210.988281 133.269531 207.230469 127.949219 203.378906 123.355469 C 208.429688 120.714844 213.269531 117.769531 217.890625 114.550781 Z M 154.894531 137.992188 C 158.78125 137.578125 162.679688 137 166.585938 136.234375 C 171.007812 135.371094 175.324219 134.296875 179.550781 133.03125 L 186.136719 151.734375 C 182.6875 152.859375 179.179688 153.867188 175.601562 154.757812 C 168.808594 156.445312 161.996094 157.644531 155.21875 158.382812 C 154.496094 150.929688 154.40625 144.089844 154.894531 137.992188 Z M 202.988281 123.558594 C 206.910156 128.089844 210.730469 133.382812 214.347656 139.246094 C 205.726562 144.171875 196.515625 148.308594 186.777344 151.527344 L 180.507812 132.742188 C 188.371094 130.328125 195.882812 127.242188 202.988281 123.558594 Z M 114.863281 158.226562 C 119.988281 158.988281 125.175781 159.503906 130.402344 159.746094 C 129.523438 165.859375 129.214844 172.328125 129.542969 179.074219 C 129.589844 180.105469 129.660156 181.132812 129.738281 182.160156 C 122.808594 181.820312 115.96875 181.070312 109.25 179.9375 C 110.175781 172.351562 112.097656 165.066406 114.863281 158.226562 Z M 244.289062 117.578125 C 250.527344 121.660156 256.183594 126.523438 261.125 132.015625 C 256.828125 136.25 252.308594 140.257812 247.59375 144.035156 C 243.554688 137.613281 238.941406 131.734375 233.878906 126.570312 C 237.492188 123.722656 240.964844 120.71875 244.289062 117.578125 Z M 130.898438 159.765625 C 138.863281 160.109375 146.925781 159.839844 155.03125 158.917969 C 155.40625 162.445312 155.917969 166.105469 156.574219 169.886719 C 157.230469 173.65625 158.007812 177.425781 158.890625 181.175781 C 155.296875 181.59375 151.664062 181.902344 147.996094 182.101562 C 141.953125 182.429688 135.960938 182.449219 130.035156 182.167969 C 129.96875 181.234375 129.90625 180.300781 129.863281 179.363281 C 129.558594 172.515625 129.929688 165.953125 130.902344 159.765625 Z M 233.5 126.878906 C 238.628906 131.980469 243.300781 137.816406 247.371094 144.210938 C 240.367188 149.808594 232.925781 154.878906 225.09375 159.367188 C 221.921875 152.265625 218.441406 145.570312 214.75 139.457031 C 221.347656 135.695312 227.609375 131.496094 233.5 126.878906 Z M 155.261719 158.890625 C 161.882812 158.128906 168.527344 156.9375 175.171875 155.285156 C 178.9375 154.351562 182.628906 153.277344 186.257812 152.085938 L 193.769531 173.410156 C 182.664062 177.117188 171.042969 179.742188 159.023438 181.15625 C 158.171875 177.519531 157.433594 173.867188 156.804688 170.210938 C 156.136719 166.300781 155.625 162.523438 155.261719 158.890625 Z M 214.546875 139.570312 C 218.277344 145.648438 221.789062 152.332031 224.980469 159.429688 C 215.230469 165.007812 204.890625 169.675781 194.054688 173.316406 L 186.898438 151.878906 C 196.648438 148.632812 205.886719 144.492188 214.546875 139.570312 Z M 214.546875 139.570312 " fill-opacity="1" fill-rule="nonzero"/></g><g clip-path="url(#7e68cddc8f)"><path fill="#007bff" d="M 166.964844 108.511719 C 133.996094 120.027344 109.773438 150.761719 108.308594 187.769531 C 107.941406 197.0625 109.039062 206.078125 111.390625 214.585938 L 111.667969 214.492188 C 109.347656 206.105469 108.289062 197.214844 108.699219 188.042969 C 108.789062 186.042969 108.953125 184.066406 109.175781 182.109375 C 115.933594 183.195312 122.8125 183.890625 129.785156 184.191406 C 130.421875 191.953125 131.871094 199.574219 134.011719 206.898438 L 134.210938 206.832031 C 132.078125 199.539062 130.660156 191.949219 130.070312 184.207031 C 135.792969 184.445312 141.578125 184.414062 147.410156 184.097656 C 151.3125 183.882812 155.171875 183.542969 158.996094 183.085938 C 160.121094 187.804688 161.410156 192.488281 162.855469 197.097656 L 162.972656 197.058594 C 161.527344 192.457031 160.238281 187.78125 159.128906 183.070312 C 171.15625 181.625 182.792969 178.996094 193.921875 175.308594 L 199.78125 191.953125 L 194.199219 175.214844 C 205.058594 171.597656 215.4375 166.972656 225.226562 161.453125 C 227.058594 165.5625 228.78125 169.808594 230.375 174.15625 L 230.492188 174.117188 C 228.894531 169.765625 227.167969 165.511719 225.339844 161.386719 C 233.222656 156.933594 240.722656 151.90625 247.785156 146.355469 C 251.433594 152.179688 254.589844 158.457031 257.15625 165.058594 L 257.371094 164.984375 C 254.792969 158.355469 251.640625 152.042969 248.007812 146.175781 C 252.789062 142.410156 257.375 138.402344 261.738281 134.179688 C 268.027344 141.316406 273.125 149.492188 276.742188 158.402344 L 277.027344 158.304688 C 264.480469 127.421875 234.773438 105.109375 199.300781 103.707031 C 190.375 103.351562 181.710938 104.347656 173.5 106.511719 C 172.796875 106.679688 172.101562 106.859375 171.410156 107.058594 C 170.875 107.1875 170.347656 107.347656 169.835938 107.53125 C 169.792969 107.546875 169.757812 107.566406 169.714844 107.582031 C 169.347656 107.703125 168.980469 107.820312 168.621094 107.945312 C 168.546875 107.972656 168.476562 108 168.40625 108.027344 C 167.925781 108.1875 167.441406 108.34375 166.964844 108.507812 Z M 169.878906 109.050781 C 170.085938 108.984375 170.296875 108.917969 170.507812 108.851562 L 174.042969 118.882812 C 168.828125 120.566406 163.570312 121.863281 158.300781 122.800781 C 160.921875 115.796875 164.859375 111.042969 169.878906 109.050781 Z M 171.902344 108.429688 C 172.027344 108.394531 172.160156 108.363281 172.285156 108.324219 C 175.914062 107.5625 180.015625 108.097656 184.53125 110.117188 C 186.132812 110.832031 187.742188 111.71875 189.355469 112.753906 C 185.027344 114.84375 180.53125 116.699219 175.875 118.28125 C 175.667969 118.351562 175.460938 118.414062 175.257812 118.480469 Z M 163.875 111.476562 C 161.179688 114.230469 158.992188 118.101562 157.390625 122.953125 C 154.046875 123.523438 150.695312 123.941406 147.351562 124.21875 C 152.105469 118.816406 157.675781 114.5 163.875 111.476562 Z M 178.507812 106.992188 C 183.304688 106.3125 188.328125 106.3125 193.527344 107.058594 C 195.128906 107.289062 196.71875 107.59375 198.296875 107.957031 C 195.667969 109.515625 192.96875 110.984375 190.195312 112.347656 C 188.175781 110.9375 186.15625 109.765625 184.15625 108.851562 C 182.191406 107.957031 180.308594 107.34375 178.507812 106.992188 Z M 155.230469 115.175781 C 151.777344 117.785156 148.59375 120.855469 145.734375 124.347656 C 144.152344 124.457031 142.570312 124.53125 140.988281 124.578125 C 145.402344 121.007812 150.171875 117.855469 155.230469 115.175781 Z M 188.597656 105.296875 C 192.21875 104.976562 195.894531 104.863281 199.617188 104.992188 C 200.675781 105.027344 201.734375 105.085938 202.785156 105.160156 C 201.753906 105.835938 200.714844 106.496094 199.660156 107.140625 C 197.523438 106.570312 195.359375 106.113281 193.179688 105.785156 C 191.636719 105.554688 190.109375 105.398438 188.597656 105.296875 Z M 139.605469 125.714844 C 141.335938 125.6875 143.074219 125.625 144.8125 125.519531 C 141.558594 129.703125 138.746094 134.445312 136.449219 139.664062 C 133.230469 139.542969 130.03125 139.304688 126.855469 138.953125 C 130.632812 134.113281 134.90625 129.671875 139.605469 125.714844 Z M 204.601562 105.304688 C 211.859375 105.964844 218.832031 107.492188 225.429688 109.789062 C 223.085938 111.714844 220.667969 113.566406 218.183594 115.335938 C 212.75 111.929688 207.03125 109.285156 201.128906 107.550781 C 202.300781 106.820312 203.460938 106.074219 204.601562 105.304688 Z M 146.316406 125.429688 C 146.316406 125.425781 146.324219 125.425781 146.324219 125.425781 C 149.882812 125.164062 153.449219 124.742188 157.015625 124.15625 C 155.71875 128.460938 154.855469 133.476562 154.46875 139.105469 C 148.722656 139.675781 143.007812 139.863281 137.351562 139.691406 C 139.820312 134.394531 142.832031 129.609375 146.316406 125.429688 Z M 199.855469 108.335938 C 205.96875 109.910156 211.894531 112.449219 217.511719 115.8125 C 212.945312 119.015625 208.148438 121.9375 203.148438 124.566406 C 199.234375 119.9375 195.226562 116.050781 191.21875 113.089844 C 194.179688 111.617188 197.0625 110.027344 199.855469 108.335938 Z M 157.875 124.007812 C 163.398438 123.054688 168.921875 121.707031 174.40625 119.9375 L 179.4375 134.210938 C 175.375 135.417969 171.222656 136.445312 166.976562 137.277344 C 162.953125 138.0625 158.929688 138.652344 154.921875 139.0625 C 155.410156 133.34375 156.414062 128.289062 157.871094 124.007812 Z M 190.433594 113.46875 C 194.570312 116.304688 198.710938 120.136719 202.753906 124.777344 C 195.695312 128.453125 188.230469 131.527344 180.402344 133.917969 L 175.601562 119.539062 C 175.804688 119.46875 176.007812 119.410156 176.210938 119.339844 C 181.140625 117.664062 185.878906 115.695312 190.433594 113.46875 Z M 126.425781 139.511719 C 129.664062 139.855469 132.933594 140.074219 136.21875 140.179688 C 133.558594 146.359375 131.621094 153.195312 130.507812 160.550781 C 125.347656 160.273438 120.230469 159.730469 115.171875 158.941406 C 118.074219 151.957031 121.878906 145.4375 126.425781 139.511719 Z M 225.953125 109.972656 C 232.292969 112.222656 238.273438 115.1875 243.808594 118.753906 C 240.527344 121.886719 237.097656 124.878906 233.53125 127.71875 C 228.878906 123.023438 223.855469 118.933594 218.554688 115.570312 C 221.089844 113.78125 223.5625 111.917969 225.953125 109.972656 Z M 137.113281 140.203125 C 142.835938 140.347656 148.621094 140.132812 154.4375 139.527344 C 154.046875 145.644531 154.207031 152.472656 154.976562 159.898438 C 146.929688 160.761719 138.921875 160.980469 131.007812 160.578125 C 132.222656 153.203125 134.300781 146.363281 137.113281 140.203125 Z M 217.890625 116.035156 C 223.300781 119.316406 228.417969 123.355469 233.152344 128.019531 C 227.3125 132.640625 221.105469 136.859375 214.554688 140.617188 C 210.988281 134.75 207.230469 129.433594 203.378906 124.839844 C 208.429688 122.199219 213.269531 119.253906 217.890625 116.035156 Z M 154.894531 139.476562 C 158.78125 139.058594 162.679688 138.480469 166.585938 137.71875 C 171.007812 136.855469 175.324219 135.78125 179.550781 134.515625 L 186.136719 153.21875 C 182.6875 154.339844 179.179688 155.351562 175.601562 156.238281 C 168.808594 157.929688 161.996094 159.128906 155.21875 159.867188 C 154.496094 152.410156 154.40625 145.570312 154.894531 139.476562 Z M 202.988281 125.039062 C 206.910156 129.574219 210.730469 134.867188 214.347656 140.730469 C 205.726562 145.65625 196.515625 149.789062 186.777344 153.007812 L 180.507812 134.226562 C 188.371094 131.8125 195.882812 128.726562 202.988281 125.039062 Z M 114.863281 159.707031 C 119.988281 160.472656 125.175781 160.988281 130.402344 161.230469 C 129.523438 167.34375 129.214844 173.8125 129.542969 180.558594 C 129.589844 181.589844 129.660156 182.613281 129.738281 183.640625 C 122.808594 183.300781 115.96875 182.554688 109.25 181.421875 C 110.175781 173.832031 112.097656 166.550781 114.863281 159.707031 Z M 244.289062 119.0625 C 250.527344 123.144531 256.183594 128.007812 261.125 133.5 C 256.828125 137.734375 252.308594 141.742188 247.59375 145.519531 C 243.554688 139.097656 238.941406 133.21875 233.878906 128.054688 C 237.492188 125.207031 240.964844 122.203125 244.289062 119.0625 Z M 130.898438 161.25 C 138.863281 161.59375 146.925781 161.320312 155.03125 160.402344 C 155.40625 163.929688 155.917969 167.589844 156.574219 171.367188 C 157.230469 175.136719 158.007812 178.910156 158.890625 182.65625 C 155.296875 183.078125 151.664062 183.386719 147.996094 183.585938 C 141.953125 183.914062 135.960938 183.929688 130.035156 183.652344 C 129.96875 182.71875 129.90625 181.785156 129.863281 180.847656 C 129.558594 174 129.929688 167.4375 130.902344 161.25 Z M 233.5 128.359375 C 238.628906 133.464844 243.300781 139.296875 247.371094 145.695312 C 240.367188 151.292969 232.925781 156.363281 225.09375 160.847656 C 221.921875 153.746094 218.441406 147.050781 214.75 140.941406 C 221.347656 137.179688 227.609375 132.976562 233.5 128.359375 Z M 155.261719 160.375 C 161.882812 159.613281 168.527344 158.421875 175.171875 156.769531 C 178.9375 155.835938 182.628906 154.757812 186.257812 153.570312 L 193.769531 174.894531 C 182.664062 178.601562 171.042969 181.226562 159.023438 182.640625 C 158.171875 179.003906 157.433594 175.351562 156.804688 171.695312 C 156.136719 167.785156 155.625 164.007812 155.261719 160.375 Z M 214.546875 141.054688 C 218.277344 147.132812 221.789062 153.816406 224.980469 160.914062 C 215.230469 166.488281 204.890625 171.160156 194.054688 174.796875 L 186.898438 153.359375 C 196.648438 150.117188 205.886719 145.976562 214.546875 141.054688 Z M 214.546875 141.054688 " fill-opacity="1" fill-rule="nonzero"/></g><g clip-path="url(#3282978b47)"><g clip-path="url(#d12e262a22)"><g clip-path="url(#51114b908a)"><path fill="#ffffff" d="M 249.210938 119.648438 C 249.058594 119.773438 248.976562 119.933594 248.972656 120.128906 C 248.964844 120.324219 249.035156 120.488281 249.179688 120.621094 C 254.5625 125.558594 259.421875 134.804688 261.890625 145.953125 C 264.355469 157.105469 263.847656 167.539062 261.050781 174.285156 C 260.972656 174.464844 260.980469 174.644531 261.070312 174.820312 C 261.15625 174.996094 261.296875 175.105469 261.484375 175.15625 L 274.207031 178.402344 C 274.367188 178.441406 274.523438 178.425781 274.667969 178.347656 C 274.816406 178.269531 274.917969 178.152344 274.972656 177.996094 C 275.539062 176.40625 276.011719 174.789062 276.386719 173.144531 C 278.433594 164.328125 278.253906 153.574219 275.882812 142.859375 C 273.511719 132.148438 269.140625 122.320312 263.570312 115.1875 C 262.535156 113.855469 261.425781 112.589844 260.242188 111.386719 C 260.125 111.269531 259.984375 111.203125 259.816406 111.195312 C 259.652344 111.1875 259.503906 111.234375 259.375 111.339844 Z M 249.210938 119.648438 " fill-opacity="1" fill-rule="nonzero"/></g></g></g><g clip-path="url(#37f7b7cc65)"><g clip-path="url(#118e0526b7)"><g clip-path="url(#0eaf8c72b2)"><g clip-path="url(#44a8da9232)"><path fill="#cc6e3b" d="M 168.125 192.765625 L 220.648438 216.714844 C 220.808594 216.789062 220.988281 216.660156 220.96875 216.484375 L 219.476562 200.957031 C 267.757812 191.882812 267.785156 153.15625 266.109375 145.800781 C 249.679688 175.667969 217.234375 177.585938 217.234375 177.585938 L 215.449219 159.027344 C 215.433594 158.851562 215.234375 158.761719 215.089844 158.863281 L 168.089844 192.371094 C 167.945312 192.472656 167.96875 192.691406 168.125 192.765625 " fill-opacity="1" fill-rule="nonzero"/></g></g></g></g><g clip-path="url(#e2446fda2a)"><g clip-path="url(#12bb313a18)"><g clip-path="url(#1e7e152d17)"><path fill="#cc6e3b" d="M 265.578125 144.164062 C 265.578125 144.164062 262.738281 126.820312 240.8125 115.773438 C 240.601562 115.664062 240.375 115.910156 240.511719 116.101562 C 243.273438 120.011719 255.03125 138.738281 247.753906 164.957031 C 247.753906 164.957031 259.90625 155.449219 265.578125 144.164062 " fill-opacity="1" fill-rule="nonzero"/></g></g></g><g clip-path="url(#f5552225a9)"><g clip-path="url(#eb6ea7a75d)"><g clip-path="url(#77b39aaea0)"><g clip-path="url(#d6bf363926)"><path fill="#f2753c" d="M 168.125 192.765625 L 220.648438 216.714844 C 220.808594 216.789062 220.988281 216.660156 220.96875 216.484375 L 219.476562 200.957031 C 267.757812 191.882812 267.785156 153.15625 266.109375 145.800781 C 249.679688 175.667969 217.234375 177.585938 217.234375 177.585938 L 215.449219 159.027344 C 215.433594 158.851562 215.234375 158.761719 215.089844 158.863281 L 168.089844 192.371094 C 167.945312 192.472656 167.96875 192.691406 168.125 192.765625 " fill-opacity="1" fill-rule="nonzero"/></g></g></g></g><g clip-path="url(#fef8544370)"><g clip-path="url(#02d5ece7ff)"><g clip-path="url(#aaa341106e)"><path fill="#ffab7c" d="M 265.578125 144.164062 C 265.578125 144.164062 262.738281 126.820312 240.8125 115.773438 C 240.601562 115.664062 240.375 115.910156 240.511719 116.101562 C 243.273438 120.011719 255.03125 138.738281 247.753906 164.957031 C 247.753906 164.957031 259.90625 155.449219 265.578125 144.164062 " fill-opacity="1" fill-rule="nonzero"/></g></g></g><g fill="#3f3f3f" fill-opacity="1"><g transform="translate(111.486362, 242.464387)"><g><path d="M 0.78125 0 L 5.953125 -26.984375 C 6.878906 -27.203125 7.992188 -27.378906 9.296875 -27.515625 C 10.609375 -27.648438 11.945312 -27.71875 13.3125 -27.71875 C 14.613281 -27.71875 15.90625 -27.601562 17.1875 -27.375 C 18.46875 -27.144531 19.582031 -26.726562 20.53125 -26.125 C 21.4375 -25.613281 22.171875 -24.90625 22.734375 -24 C 23.304688 -23.101562 23.59375 -22.015625 23.59375 -20.734375 C 23.59375 -18.691406 22.992188 -17.03125 21.796875 -15.75 C 20.597656 -14.476562 19.117188 -13.554688 17.359375 -12.984375 L 17.359375 -12.8125 C 18.171875 -12.46875 18.773438 -11.859375 19.171875 -10.984375 C 19.566406 -10.109375 19.832031 -9.046875 19.96875 -7.796875 C 20.070312 -6.785156 20.171875 -5.75 20.265625 -4.6875 C 20.367188 -3.632812 20.476562 -2.6875 20.59375 -1.84375 C 20.71875 -1 20.863281 -0.382812 21.03125 0 L 14.984375 0 C 14.878906 -0.382812 14.75 -1.140625 14.59375 -2.265625 C 14.445312 -3.390625 14.304688 -4.796875 14.171875 -6.484375 C 14.054688 -8.171875 13.695312 -9.320312 13.09375 -9.9375 C 12.5 -10.550781 11.617188 -10.859375 10.453125 -10.859375 L 8.65625 -10.859375 L 6.609375 0 Z M 10.984375 -22.859375 L 9.515625 -15.265625 L 11.96875 -15.265625 C 13.570312 -15.265625 14.890625 -15.695312 15.921875 -16.5625 C 16.953125 -17.4375 17.46875 -18.546875 17.46875 -19.890625 C 17.46875 -21.003906 17.0625 -21.8125 16.25 -22.3125 C 15.4375 -22.8125 14.441406 -23.0625 13.265625 -23.0625 C 12.722656 -23.0625 12.265625 -23.039062 11.890625 -23 C 11.523438 -22.96875 11.222656 -22.921875 10.984375 -22.859375 Z M 10.984375 -22.859375 "/></g></g></g><g fill="#3f3f3f" fill-opacity="1"><g transform="translate(135.285555, 242.464387)"><g><path d="M 16.828125 -5.390625 L 17.234375 -1.140625 C 16.054688 -0.546875 14.800781 -0.140625 13.46875 0.078125 C 12.132812 0.296875 10.910156 0.40625 9.796875 0.40625 C 6.941406 0.40625 4.785156 -0.347656 3.328125 -1.859375 C 1.867188 -3.367188 1.140625 -5.414062 1.140625 -8 C 1.140625 -9.519531 1.40625 -11.015625 1.9375 -12.484375 C 2.46875 -13.960938 3.234375 -15.300781 4.234375 -16.5 C 5.242188 -17.695312 6.46875 -18.648438 7.90625 -19.359375 C 9.351562 -20.066406 10.976562 -20.421875 12.78125 -20.421875 C 14.789062 -20.421875 16.445312 -19.890625 17.75 -18.828125 C 19.0625 -17.765625 19.71875 -16.304688 19.71875 -14.453125 C 19.71875 -12.765625 19.191406 -11.410156 18.140625 -10.390625 C 17.097656 -9.367188 15.609375 -8.65625 13.671875 -8.25 C 11.742188 -7.84375 9.445312 -7.664062 6.78125 -7.71875 C 6.78125 -7.445312 6.832031 -7.113281 6.9375 -6.71875 C 7.050781 -6.320312 7.203125 -5.972656 7.390625 -5.671875 C 8.179688 -4.640625 9.460938 -4.125 11.234375 -4.125 C 12.316406 -4.125 13.320312 -4.238281 14.25 -4.46875 C 15.175781 -4.695312 16.035156 -5.003906 16.828125 -5.390625 Z M 14.203125 -14.40625 C 14.203125 -14.925781 14.007812 -15.34375 13.625 -15.65625 C 13.25 -15.96875 12.722656 -16.125 12.046875 -16.125 C 11.148438 -16.125 10.375 -15.910156 9.71875 -15.484375 C 9.0625 -15.066406 8.535156 -14.535156 8.140625 -13.890625 C 7.742188 -13.253906 7.476562 -12.625 7.34375 -12 C 9.632812 -11.976562 11.347656 -12.148438 12.484375 -12.515625 C 13.628906 -12.878906 14.203125 -13.507812 14.203125 -14.40625 Z M 14.203125 -14.40625 "/></g></g></g><g fill="#3f3f3f" fill-opacity="1"><g transform="translate(155.737359, 242.464387)"><g><path d="M 6.40625 0 L 0.53125 0 L 6.078125 -28.984375 L 11.96875 -28.984375 Z M 6.40625 0 "/></g></g></g><g fill="#3f3f3f" fill-opacity="1"><g transform="translate(166.555178, 242.464387)"><g><path d="M 6.40625 0 L 0.53125 0 L 4.328125 -19.96875 L 10.203125 -19.96875 Z M 8 -22.453125 C 7.1875 -22.453125 6.503906 -22.707031 5.953125 -23.21875 C 5.410156 -23.738281 5.140625 -24.4375 5.140625 -25.3125 C 5.171875 -26.320312 5.519531 -27.128906 6.1875 -27.734375 C 6.851562 -28.347656 7.632812 -28.65625 8.53125 -28.65625 C 9.40625 -28.65625 10.113281 -28.390625 10.65625 -27.859375 C 11.195312 -27.328125 11.46875 -26.628906 11.46875 -25.765625 C 11.46875 -24.734375 11.128906 -23.921875 10.453125 -23.328125 C 9.773438 -22.742188 8.957031 -22.453125 8 -22.453125 Z M 8 -22.453125 "/></g></g></g><g fill="#3f3f3f" fill-opacity="1"><g transform="translate(177.372998, 242.464387)"><g><path d="M 19.03125 0 L 13.59375 0 C 13.625 -0.59375 13.664062 -1.222656 13.71875 -1.890625 C 13.769531 -2.566406 13.820312 -3.253906 13.875 -3.953125 L 13.765625 -3.953125 C 12.835938 -2.296875 11.78125 -1.144531 10.59375 -0.5 C 9.40625 0.132812 8.226562 0.453125 7.0625 0.453125 C 5.269531 0.453125 3.8125 -0.1875 2.6875 -1.46875 C 1.570312 -2.75 1.015625 -4.421875 1.015625 -6.484375 C 1.015625 -8.171875 1.300781 -9.835938 1.875 -11.484375 C 2.445312 -13.140625 3.316406 -14.640625 4.484375 -15.984375 C 5.660156 -17.328125 7.144531 -18.398438 8.9375 -19.203125 C 10.738281 -20.015625 12.863281 -20.421875 15.3125 -20.421875 C 16.507812 -20.421875 17.695312 -20.320312 18.875 -20.125 C 20.0625 -19.9375 21.078125 -19.707031 21.921875 -19.4375 L 19.796875 -8.984375 C 19.640625 -8.140625 19.5 -7.171875 19.375 -6.078125 C 19.25 -4.992188 19.148438 -3.921875 19.078125 -2.859375 C 19.015625 -1.796875 19 -0.84375 19.03125 0 Z M 14.375 -11.1875 L 15.3125 -15.796875 C 15.09375 -15.847656 14.847656 -15.890625 14.578125 -15.921875 C 14.304688 -15.953125 14.019531 -15.96875 13.71875 -15.96875 C 12.769531 -15.96875 11.890625 -15.707031 11.078125 -15.1875 C 10.273438 -14.664062 9.582031 -13.988281 9 -13.15625 C 8.414062 -12.332031 7.957031 -11.429688 7.625 -10.453125 C 7.300781 -9.472656 7.140625 -8.519531 7.140625 -7.59375 C 7.140625 -6.613281 7.335938 -5.816406 7.734375 -5.203125 C 8.128906 -4.585938 8.734375 -4.28125 9.546875 -4.28125 C 10.421875 -4.28125 11.332031 -4.816406 12.28125 -5.890625 C 13.238281 -6.972656 13.9375 -8.738281 14.375 -11.1875 Z M 14.375 -11.1875 "/></g></g></g><g fill="#3f3f3f" fill-opacity="1"><g transform="translate(199.988356, 242.464387)"><g><path d="M 5.953125 -28.984375 L 11.875 -28.984375 L 9.515625 -17.59375 L 9.59375 -17.59375 C 10.332031 -18.46875 11.238281 -19.15625 12.3125 -19.65625 C 13.382812 -20.164062 14.535156 -20.421875 15.765625 -20.421875 C 17.148438 -20.421875 18.289062 -20.082031 19.1875 -19.40625 C 20.082031 -18.738281 20.738281 -17.878906 21.15625 -16.828125 C 21.582031 -15.785156 21.796875 -14.664062 21.796875 -13.46875 C 21.796875 -11.84375 21.53125 -10.210938 21 -8.578125 C 20.46875 -6.941406 19.648438 -5.441406 18.546875 -4.078125 C 17.453125 -2.722656 16.082031 -1.628906 14.4375 -0.796875 C 12.789062 0.0351562 10.835938 0.453125 8.578125 0.453125 C 6.203125 0.453125 4.421875 -0.0351562 3.234375 -1.015625 C 2.054688 -1.992188 1.46875 -3.367188 1.46875 -5.140625 C 1.46875 -5.765625 1.515625 -6.375 1.609375 -6.96875 C 1.703125 -7.570312 1.804688 -8.175781 1.921875 -8.78125 Z M 8.125 -10.046875 L 7.75 -8.40625 C 7.726562 -8.082031 7.679688 -7.742188 7.609375 -7.390625 C 7.546875 -7.035156 7.523438 -6.640625 7.546875 -6.203125 C 7.578125 -5.492188 7.789062 -4.945312 8.1875 -4.5625 C 8.582031 -4.1875 9.117188 -4 9.796875 -4 C 10.640625 -4 11.414062 -4.253906 12.125 -4.765625 C 12.832031 -5.285156 13.453125 -5.960938 13.984375 -6.796875 C 14.515625 -7.628906 14.921875 -8.523438 15.203125 -9.484375 C 15.492188 -10.453125 15.640625 -11.375 15.640625 -12.25 C 15.640625 -13.195312 15.425781 -14.003906 15 -14.671875 C 14.582031 -15.335938 13.925781 -15.671875 13.03125 -15.671875 C 11.96875 -15.671875 10.972656 -15.164062 10.046875 -14.15625 C 9.117188 -13.15625 8.476562 -11.785156 8.125 -10.046875 Z M 8.125 -10.046875 "/></g></g></g><g fill="#3f3f3f" fill-opacity="1"><g transform="translate(222.848647, 242.464387)"><g><path d="M 6.40625 0 L 0.53125 0 L 6.078125 -28.984375 L 11.96875 -28.984375 Z M 6.40625 0 "/></g></g></g><g fill="#3f3f3f" fill-opacity="1"><g transform="translate(233.666466, 242.464387)"><g><path d="M 16.828125 -5.390625 L 17.234375 -1.140625 C 16.054688 -0.546875 14.800781 -0.140625 13.46875 0.078125 C 12.132812 0.296875 10.910156 0.40625 9.796875 0.40625 C 6.941406 0.40625 4.785156 -0.347656 3.328125 -1.859375 C 1.867188 -3.367188 1.140625 -5.414062 1.140625 -8 C 1.140625 -9.519531 1.40625 -11.015625 1.9375 -12.484375 C 2.46875 -13.960938 3.234375 -15.300781 4.234375 -16.5 C 5.242188 -17.695312 6.46875 -18.648438 7.90625 -19.359375 C 9.351562 -20.066406 10.976562 -20.421875 12.78125 -20.421875 C 14.789062 -20.421875 16.445312 -19.890625 17.75 -18.828125 C 19.0625 -17.765625 19.71875 -16.304688 19.71875 -14.453125 C 19.71875 -12.765625 19.191406 -11.410156 18.140625 -10.390625 C 17.097656 -9.367188 15.609375 -8.65625 13.671875 -8.25 C 11.742188 -7.84375 9.445312 -7.664062 6.78125 -7.71875 C 6.78125 -7.445312 6.832031 -7.113281 6.9375 -6.71875 C 7.050781 -6.320312 7.203125 -5.972656 7.390625 -5.671875 C 8.179688 -4.640625 9.460938 -4.125 11.234375 -4.125 C 12.316406 -4.125 13.320312 -4.238281 14.25 -4.46875 C 15.175781 -4.695312 16.035156 -5.003906 16.828125 -5.390625 Z M 14.203125 -14.40625 C 14.203125 -14.925781 14.007812 -15.34375 13.625 -15.65625 C 13.25 -15.96875 12.722656 -16.125 12.046875 -16.125 C 11.148438 -16.125 10.375 -15.910156 9.71875 -15.484375 C 9.0625 -15.066406 8.535156 -14.535156 8.140625 -13.890625 C 7.742188 -13.253906 7.476562 -12.625 7.34375 -12 C 9.632812 -11.976562 11.347656 -12.148438 12.484375 -12.515625 C 13.628906 -12.878906 14.203125 -13.507812 14.203125 -14.40625 Z M 14.203125 -14.40625 "/></g></g></g><g fill="#373643" fill-opacity="1"><g transform="translate(169.648323, 263.353056)"><g><path d="M 0.578125 -0.21875 L 3.984375 -18.140625 C 5.554688 -18.410156 7.25 -18.546875 9.0625 -18.546875 C 10.5 -18.546875 11.78125 -18.378906 12.90625 -18.046875 C 14.039062 -17.722656 15 -17.222656 15.78125 -16.546875 C 16.53125 -15.929688 17.117188 -15.15625 17.546875 -14.21875 C 17.972656 -13.28125 18.195312 -12.132812 18.21875 -10.78125 C 18.21875 -9.019531 17.867188 -7.394531 17.171875 -5.90625 C 16.484375 -4.425781 15.566406 -3.234375 14.421875 -2.328125 C 13.367188 -1.484375 12.132812 -0.863281 10.71875 -0.46875 C 9.3125 -0.0820312 7.601562 0.109375 5.59375 0.109375 C 4.488281 0.109375 3.488281 0.0703125 2.59375 0 C 1.695312 -0.0703125 1.023438 -0.144531 0.578125 -0.21875 Z M 7.40625 -15.265625 L 5.078125 -3.171875 C 5.316406 -3.128906 5.578125 -3.097656 5.859375 -3.078125 C 6.140625 -3.066406 6.453125 -3.0625 6.796875 -3.0625 C 7.867188 -3.0625 8.851562 -3.242188 9.75 -3.609375 C 10.65625 -3.984375 11.410156 -4.519531 12.015625 -5.21875 C 13.285156 -6.65625 13.921875 -8.503906 13.921875 -10.765625 C 13.921875 -12.222656 13.515625 -13.351562 12.703125 -14.15625 C 11.898438 -14.96875 10.6875 -15.375 9.0625 -15.375 C 8.71875 -15.375 8.40625 -15.363281 8.125 -15.34375 C 7.84375 -15.332031 7.601562 -15.304688 7.40625 -15.265625 Z M 7.40625 -15.265625 "/></g></g></g><g fill="#373643" fill-opacity="1"><g transform="translate(188.24261, 263.353056)"><g><path d="M 4.28125 0 L 0.359375 0 L 2.890625 -13.359375 L 6.828125 -13.359375 Z M 5.359375 -15.015625 C 4.804688 -15.015625 4.347656 -15.1875 3.984375 -15.53125 C 3.617188 -15.882812 3.4375 -16.351562 3.4375 -16.9375 C 3.457031 -17.601562 3.691406 -18.140625 4.140625 -18.546875 C 4.585938 -18.960938 5.109375 -19.171875 5.703125 -19.171875 C 6.285156 -19.171875 6.757812 -18.992188 7.125 -18.640625 C 7.488281 -18.285156 7.671875 -17.816406 7.671875 -17.234375 C 7.671875 -16.546875 7.441406 -16.003906 6.984375 -15.609375 C 6.535156 -15.210938 5.992188 -15.015625 5.359375 -15.015625 Z M 5.359375 -15.015625 "/></g></g></g><g fill="#373643" fill-opacity="1"><g transform="translate(195.478273, 263.353056)"><g><path d="M 0.328125 4.859375 L 1.234375 1.859375 C 1.597656 2.078125 2.128906 2.253906 2.828125 2.390625 C 3.523438 2.523438 4.15625 2.59375 4.71875 2.59375 C 5.707031 2.59375 6.550781 2.332031 7.25 1.8125 C 7.945312 1.289062 8.4375 0.367188 8.71875 -0.953125 L 8.9375 -2.078125 L 8.875 -2.078125 C 7.851562 -0.765625 6.578125 -0.109375 5.046875 -0.109375 C 4.171875 -0.109375 3.414062 -0.320312 2.78125 -0.75 C 2.144531 -1.175781 1.65625 -1.753906 1.3125 -2.484375 C 0.96875 -3.210938 0.785156 -4.003906 0.765625 -4.859375 C 0.765625 -5.972656 0.957031 -7.050781 1.34375 -8.09375 C 1.738281 -9.144531 2.3125 -10.085938 3.0625 -10.921875 C 3.820312 -11.765625 4.753906 -12.429688 5.859375 -12.921875 C 6.972656 -13.410156 8.257812 -13.65625 9.71875 -13.65625 C 11.582031 -13.65625 13.234375 -13.347656 14.671875 -12.734375 L 12.640625 -1.71875 C 12.410156 -0.5 12.082031 0.628906 11.65625 1.671875 C 11.238281 2.722656 10.628906 3.566406 9.828125 4.203125 C 9.097656 4.765625 8.28125 5.15625 7.375 5.375 C 6.46875 5.59375 5.566406 5.703125 4.671875 5.703125 C 3.773438 5.703125 2.941406 5.625 2.171875 5.46875 C 1.398438 5.320312 0.785156 5.117188 0.328125 4.859375 Z M 9.71875 -6.828125 L 10.40625 -10.40625 C 10.039062 -10.570312 9.566406 -10.65625 8.984375 -10.65625 C 8.203125 -10.65625 7.5 -10.398438 6.875 -9.890625 C 6.257812 -9.378906 5.78125 -8.726562 5.4375 -7.9375 C 5.09375 -7.144531 4.921875 -6.320312 4.921875 -5.46875 C 4.921875 -4.789062 5.066406 -4.234375 5.359375 -3.796875 C 5.660156 -3.359375 6.113281 -3.140625 6.71875 -3.140625 C 7.351562 -3.140625 7.960938 -3.472656 8.546875 -4.140625 C 9.128906 -4.804688 9.519531 -5.703125 9.71875 -6.828125 Z M 9.71875 -6.828125 "/></g></g></g><g fill="#373643" fill-opacity="1"><g transform="translate(210.714114, 263.353056)"><g><path d="M 4.28125 0 L 0.359375 0 L 2.890625 -13.359375 L 6.828125 -13.359375 Z M 5.359375 -15.015625 C 4.804688 -15.015625 4.347656 -15.1875 3.984375 -15.53125 C 3.617188 -15.882812 3.4375 -16.351562 3.4375 -16.9375 C 3.457031 -17.601562 3.691406 -18.140625 4.140625 -18.546875 C 4.585938 -18.960938 5.109375 -19.171875 5.703125 -19.171875 C 6.285156 -19.171875 6.757812 -18.992188 7.125 -18.640625 C 7.488281 -18.285156 7.671875 -17.816406 7.671875 -17.234375 C 7.671875 -16.546875 7.441406 -16.003906 6.984375 -15.609375 C 6.535156 -15.210938 5.992188 -15.015625 5.359375 -15.015625 Z M 5.359375 -15.015625 "/></g></g></g><g fill="#373643" fill-opacity="1"><g transform="translate(217.949777, 263.353056)"><g><path d="M 3.90625 -16.171875 L 7.921875 -17.09375 L 7.203125 -13.359375 L 10.046875 -13.359375 L 9.484375 -10.375 L 6.640625 -10.375 L 5.734375 -5.84375 C 5.679688 -5.570312 5.628906 -5.28125 5.578125 -4.96875 C 5.535156 -4.65625 5.515625 -4.382812 5.515625 -4.15625 C 5.515625 -3.820312 5.597656 -3.550781 5.765625 -3.34375 C 5.929688 -3.132812 6.222656 -3.03125 6.640625 -3.03125 C 6.816406 -3.03125 6.992188 -3.035156 7.171875 -3.046875 C 7.359375 -3.054688 7.546875 -3.070312 7.734375 -3.09375 L 7.265625 0 C 7.023438 0.09375 6.679688 0.164062 6.234375 0.21875 C 5.796875 0.269531 5.363281 0.296875 4.9375 0.296875 C 3.78125 0.296875 2.910156 0.03125 2.328125 -0.5 C 1.753906 -1.039062 1.46875 -1.726562 1.46875 -2.5625 C 1.46875 -3.257812 1.5625 -4.085938 1.75 -5.046875 L 2.78125 -10.375 L 1.09375 -10.375 L 1.640625 -13.359375 L 3.359375 -13.359375 Z M 3.90625 -16.171875 "/></g></g></g><g fill="#373643" fill-opacity="1"><g transform="translate(227.451705, 263.353056)"><g><path d="M 12.734375 0 L 9.09375 0 C 9.113281 -0.394531 9.140625 -0.816406 9.171875 -1.265625 C 9.210938 -1.710938 9.25 -2.175781 9.28125 -2.65625 L 9.203125 -2.65625 C 8.585938 -1.539062 7.882812 -0.769531 7.09375 -0.34375 C 6.300781 0.0820312 5.507812 0.296875 4.71875 0.296875 C 3.519531 0.296875 2.546875 -0.128906 1.796875 -0.984375 C 1.054688 -1.835938 0.6875 -2.957031 0.6875 -4.34375 C 0.6875 -5.46875 0.875 -6.582031 1.25 -7.6875 C 1.632812 -8.789062 2.21875 -9.789062 3 -10.6875 C 3.78125 -11.59375 4.769531 -12.3125 5.96875 -12.84375 C 7.175781 -13.382812 8.601562 -13.65625 10.25 -13.65625 C 11.039062 -13.65625 11.832031 -13.59375 12.625 -13.46875 C 13.414062 -13.34375 14.097656 -13.1875 14.671875 -13 L 13.25 -6.015625 C 13.132812 -5.441406 13.035156 -4.789062 12.953125 -4.0625 C 12.878906 -3.34375 12.816406 -2.625 12.765625 -1.90625 C 12.722656 -1.195312 12.710938 -0.5625 12.734375 0 Z M 9.609375 -7.484375 L 10.25 -10.5625 C 10.101562 -10.601562 9.9375 -10.628906 9.75 -10.640625 C 9.570312 -10.660156 9.378906 -10.671875 9.171875 -10.671875 C 8.535156 -10.671875 7.945312 -10.5 7.40625 -10.15625 C 6.875 -9.8125 6.410156 -9.359375 6.015625 -8.796875 C 5.628906 -8.242188 5.328125 -7.640625 5.109375 -6.984375 C 4.890625 -6.335938 4.78125 -5.703125 4.78125 -5.078125 C 4.78125 -4.421875 4.910156 -3.890625 5.171875 -3.484375 C 5.441406 -3.078125 5.847656 -2.875 6.390625 -2.875 C 6.972656 -2.875 7.582031 -3.234375 8.21875 -3.953125 C 8.851562 -4.671875 9.316406 -5.847656 9.609375 -7.484375 Z M 9.609375 -7.484375 "/></g></g></g><g fill="#373643" fill-opacity="1"><g transform="translate(242.578332, 263.353056)"><g><path d="M 4.28125 0 L 0.359375 0 L 4.0625 -19.390625 L 8 -19.390625 Z M 4.28125 0 "/></g></g></g></svg>